<svg width="42" height="42" viewBox="0 0 42 42" fill="none" xmlns="http://www.w3.org/2000/svg">
<path d="M1.9579 6.6363L7.38622 1.21309C7.76914 0.828486 8.22427 0.52333 8.72548 0.31515C9.22668 0.106971 9.76408 -0.000130074 10.3068 1.18554e-07C11.4129 1.18554e-07 12.4526 0.433246 13.2325 1.21309L19.0737 7.05426C19.4583 7.43718 19.7634 7.89231 19.9716 8.39352C20.1798 8.89472 20.2869 9.43212 20.2867 9.97484C20.2867 11.0809 19.8535 12.1207 19.0737 12.9005L14.8024 17.1718C15.8022 19.3756 17.1922 21.3804 18.9055 23.0894C20.6144 24.8068 22.619 26.2019 24.8231 27.2078L29.0944 22.9365C29.4773 22.5519 29.9324 22.2468 30.4336 22.0386C30.9348 21.8304 31.4722 21.7233 32.015 21.7234C33.121 21.7234 34.1608 22.1567 34.9406 22.9365L40.7869 28.7726C41.172 29.1562 41.4774 29.6122 41.6856 30.1143C41.8938 30.6164 42.0006 31.1547 42 31.6983C42 32.8043 41.5668 33.8441 40.7869 34.624L35.3688 40.0421C34.1251 41.2909 32.4074 41.9993 30.6439 41.9993C30.2718 41.9993 29.915 41.9688 29.5633 41.9076C22.6925 40.7761 15.8778 37.1215 10.3782 31.6269C4.88358 26.1375 1.23413 19.3279 0.087304 12.4367C-0.259295 10.3316 0.438997 8.16541 1.9579 6.6363Z" fill="#878787"/>
</svg>
