<svg width="48" height="34" viewBox="0 0 48 34" fill="none" xmlns="http://www.w3.org/2000/svg">
<path d="M5.30512 0H42.6949C46.2222 0 48 1.6649 48 5.05115V28.8113C48 32.1693 46.2222 33.8624 42.6949 33.8624H5.30512C1.77778 33.8624 0 32.1693 0 28.8113V5.05115C0 1.6649 1.77778 0 5.30512 0ZM23.9859 24.2681L43.0053 8.66314C43.6825 8.09877 44.2187 6.80071 43.3721 5.64374C42.5538 4.48677 41.0582 4.45855 40.0706 5.16402L23.9859 16.0564L7.92946 5.16402C6.9418 4.45855 5.44621 4.48677 4.62787 5.64374C3.78131 6.80071 4.31746 8.09877 4.99471 8.66314L23.9859 24.2681Z" fill="black"/>
</svg>
