<svg width="48" height="36" viewBox="0 0 48 36" fill="none" xmlns="http://www.w3.org/2000/svg">
<path d="M24.1545 0H24.4215C26.8877 0.00949076 39.3835 0.104399 42.7527 1.0598C43.7712 1.35139 44.6993 1.91974 45.4443 2.70806C46.1893 3.49638 46.725 4.47706 46.9979 5.5521C47.301 6.75426 47.514 8.34554 47.658 9.98744L47.688 10.3165L47.754 11.139L47.778 11.468C47.973 14.3595 47.997 17.0676 48 17.6591V17.8964C47.997 18.5101 47.97 21.4017 47.754 24.4134L47.73 24.7456L47.703 25.0746C47.553 26.8842 47.331 28.6811 46.9979 30.0035C46.7258 31.0789 46.1904 32.0601 45.4453 32.8485C44.7002 33.637 43.7716 34.205 42.7527 34.4958C39.2725 35.4828 26.0446 35.5524 24.2115 35.5556H23.7855C22.8584 35.5556 19.0242 35.5366 15.0039 35.391L14.4939 35.3721L14.2329 35.3594L13.7199 35.3373L13.2068 35.3151C9.87662 35.1601 6.70542 34.9102 5.24433 34.4926C4.22573 34.2022 3.2974 33.6346 2.55233 32.8467C1.80726 32.0588 1.27162 31.0783 0.999062 30.0035C0.666042 28.6842 0.444028 26.8842 0.294018 25.0746L0.270017 24.7424L0.246015 24.4134C0.0979489 22.2698 0.0159006 20.1216 0 17.9723L0 17.5832C0.00600038 16.903 0.0300019 14.5525 0.192012 11.9584L0.213013 11.6325L0.222014 11.468L0.246015 11.139L0.31202 10.3165L0.342021 9.98744C0.48603 8.34554 0.699044 6.75109 1.00206 5.5521C1.27416 4.47663 1.8096 3.49548 2.5547 2.70703C3.2998 1.91857 4.22837 1.35051 5.24733 1.0598C6.70842 0.648536 9.87962 0.395448 13.2098 0.237269L13.7199 0.215124L14.2359 0.196143L14.4939 0.186652L15.0069 0.164507C17.8622 0.0676208 20.7187 0.0138339 23.5755 0.00316373H24.1545V0ZM19.2012 10.1551V25.3973L31.673 17.7794L19.2012 10.1551Z" fill="black"/>
</svg>
