<svg width="47" height="47" viewBox="0 0 47 47" fill="none" xmlns="http://www.w3.org/2000/svg">
<path fill-rule="evenodd" clip-rule="evenodd" d="M17.4581 16.3771H26.186V20.7246C27.4433 18.2242 30.6675 15.9776 35.5108 15.9776C44.7957 15.9776 47 20.9549 47 30.087V47H37.6V32.1668C37.6 26.9662 36.3427 24.0334 33.142 24.0334C28.7029 24.0334 26.8581 27.1942 26.8581 32.1644V47H17.4581V16.3771ZM1.3395 46.6005H10.7395V15.9776H1.3395V46.6005ZM12.086 5.9925C12.0864 6.78039 11.9301 7.5605 11.6264 8.28747C11.3226 9.01445 10.8773 9.6738 10.3165 10.2272C9.18003 11.3567 7.64175 11.9889 6.03949 11.985C4.44006 11.9839 2.90533 11.3533 1.7672 10.2295C1.2084 9.67427 0.764656 9.01418 0.461407 8.28711C0.158158 7.56004 0.00136096 6.78027 0 5.9925C0 4.40155 0.634499 2.87875 1.76955 1.75545C2.90668 0.630172 4.44206 -0.000703145 6.04185 5.88121e-07C7.64454 5.88121e-07 9.18144 0.63215 10.3165 1.75545C11.4492 2.87875 12.086 4.40155 12.086 5.9925Z" fill="black"/>
</svg>
