<svg width="33" height="45" viewBox="0 0 33 45" fill="none" xmlns="http://www.w3.org/2000/svg">
<path d="M14.4633 43.6661C9.97734 38.0504 0 24.4397 0 16.7946C0 7.5191 7.38719 0 16.5 0C25.6094 0 33 7.5191 33 16.7946C33 24.4397 22.9453 38.0504 18.5367 43.6661C17.4797 45.0044 15.5203 45.0044 14.4633 43.6661ZM16.5 22.3929C19.5336 22.3929 22 19.8824 22 16.7946C22 13.7069 19.5336 11.1964 16.5 11.1964C13.4664 11.1964 11 13.7069 11 16.7946C11 19.8824 13.4664 22.3929 16.5 22.3929Z" fill="black"/>
</svg>
