<svg width="45" height="45" viewBox="0 0 45 45" fill="none" xmlns="http://www.w3.org/2000/svg">
<path d="M2.09772 7.11033L7.91378 1.29974C8.32405 0.887664 8.81169 0.560711 9.3487 0.337661C9.88571 0.114612 10.4615 -0.000139365 11.043 1.27022e-07C12.228 1.27022e-07 13.3421 0.464192 14.1776 1.29974L20.436 7.55814C20.8481 7.96841 21.1751 8.45606 21.3981 8.99306C21.6212 9.53007 21.7359 10.1059 21.7358 10.6873C21.7358 11.8724 21.2716 12.9865 20.436 13.822L15.8597 18.3984C16.9309 20.7595 18.4202 22.9075 20.2558 24.7387C22.0868 26.5788 24.2346 28.0735 26.5961 29.1513L31.1725 24.5749C31.5828 24.1628 32.0704 23.8359 32.6075 23.6128C33.1445 23.3898 33.7202 23.275 34.3017 23.2751C35.4868 23.2751 36.6008 23.7393 37.4364 24.5749L43.7003 30.8278C44.1128 31.2388 44.4401 31.7274 44.6631 32.2654C44.8862 32.8033 45.0007 33.3801 45 33.9625C45 35.1475 44.5358 36.2616 43.7003 37.0971L37.8951 42.9023C36.5626 44.2402 34.7222 44.9993 32.8327 44.9993C32.434 44.9993 32.0518 44.9666 31.675 44.901C24.3134 43.6887 17.0119 39.7731 11.1194 33.886C5.23239 28.0044 1.32225 20.7084 0.0935075 13.325C-0.277847 11.0696 0.470323 8.74866 2.09772 7.11033Z" fill="black"/>
</svg>
