<svg width="43" height="32" viewBox="0 0 43 32" fill="none" xmlns="http://www.w3.org/2000/svg">
<path d="M21.6384 0H21.8776C24.0869 0.00850214 35.281 0.093524 38.2992 0.949406C39.2117 1.21062 40.0431 1.71976 40.7105 2.42597C41.3779 3.13217 41.8578 4.0107 42.1023 4.97375C42.3737 6.05069 42.5646 7.47621 42.6936 8.94708L42.7205 9.24182L42.7796 9.97867L42.8011 10.2734C42.9758 12.8637 42.9973 15.2897 43 15.8196V16.0322C42.9973 16.582 42.9731 19.1723 42.7796 21.8703L42.7581 22.1679L42.7339 22.4626C42.5995 24.0837 42.4006 25.6935 42.1023 26.8781C41.8585 27.8415 41.3789 28.7205 40.7114 29.4268C40.0439 30.1331 39.2121 30.642 38.2992 30.9024C35.1816 31.7867 23.3316 31.849 21.6895 31.8518H21.3078C20.4773 31.8518 17.0425 31.8348 13.441 31.7045L12.9841 31.6875L12.7503 31.6761L12.2907 31.6563L11.8311 31.6364C8.8478 31.4976 6.00693 31.2737 4.69804 30.8996C3.78555 30.6394 2.95392 30.131 2.28646 29.4252C1.61901 28.7194 1.13916 27.841 0.894993 26.8781C0.596662 25.6963 0.397775 24.0837 0.263391 22.4626L0.24189 22.1651L0.220389 21.8703C0.0877459 19.95 0.0142443 18.0256 0 16.1002L0 15.7516C0.00537533 15.1423 0.0268767 13.0366 0.172011 10.7127L0.190824 10.4208L0.198887 10.2734L0.220389 9.97867L0.279517 9.24182L0.306394 8.94708C0.435402 7.47621 0.626226 6.04785 0.897681 4.97375C1.14143 4.01031 1.6211 3.13137 2.28858 2.42504C2.95607 1.71872 3.78792 1.20983 4.70073 0.949406C6.00962 0.58098 8.85049 0.354255 11.8338 0.212553L12.2907 0.192715L12.753 0.175711L12.9841 0.167209L13.4437 0.147371C16.0016 0.0605769 18.5605 0.0123929 21.1197 0.00283418H21.6384V0ZM17.2011 9.09729V22.7517L28.3737 15.9273L17.2011 9.09729Z" fill="#878787"/>
</svg>
