<svg width="36" height="36" viewBox="0 0 36 36" fill="none" xmlns="http://www.w3.org/2000/svg">
<path d="M17.995 11.9974C14.6899 11.9974 11.9926 14.6947 11.9926 17.9999C11.9926 21.3051 14.6899 24.0024 17.995 24.0024C21.3002 24.0024 23.9974 21.3051 23.9974 17.9999C23.9974 14.6947 21.3002 11.9974 17.995 11.9974ZM35.9977 17.9999C35.9977 15.5142 36.0202 13.0511 35.8806 10.5699C35.7411 7.68797 35.0836 5.13027 32.9763 3.02286C30.8644 0.910947 28.3112 0.258011 25.4294 0.118418C22.9437 -0.0211757 20.4806 0.00133939 17.9995 0.00133939C15.5139 0.00133939 13.0508 -0.0211757 10.5697 0.118418C7.68783 0.258011 5.13017 0.91545 3.0228 3.02286C0.91093 5.13477 0.258006 7.68797 0.118415 10.5699C-0.0211753 13.0556 0.00133937 15.5187 0.00133937 17.9999C0.00133937 20.481 -0.0211753 22.9487 0.118415 25.4298C0.258006 28.3118 0.915433 30.8695 3.0228 32.9769C5.13467 35.0888 7.68783 35.7417 10.5697 35.8813C13.0553 36.0209 15.5184 35.9984 17.9995 35.9984C20.4851 35.9984 22.9482 36.0209 25.4294 35.8813C28.3112 35.7417 30.8689 35.0843 32.9763 32.9769C35.0881 30.865 35.7411 28.3118 35.8806 25.4298C36.0247 22.9487 35.9977 20.4855 35.9977 17.9999ZM17.995 27.2355C12.8842 27.2355 8.75953 23.1108 8.75953 17.9999C8.75953 12.8889 12.8842 8.76419 17.995 8.76419C23.1058 8.76419 27.2305 12.8889 27.2305 17.9999C27.2305 23.1108 23.1058 27.2355 17.995 27.2355ZM27.6088 10.5429C26.4155 10.5429 25.4519 9.57924 25.4519 8.38594C25.4519 7.19264 26.4155 6.229 27.6088 6.229C28.802 6.229 29.7657 7.19264 29.7657 8.38594C29.766 8.66929 29.7105 8.94993 29.6022 9.21179C29.4939 9.47364 29.3351 9.71156 29.1347 9.91192C28.9344 10.1123 28.6965 10.2711 28.4346 10.3794C28.1728 10.4877 27.8921 10.5432 27.6088 10.5429Z" fill="#878787"/>
</svg>
