<svg width="36" height="36" viewBox="0 0 36 36" fill="none" xmlns="http://www.w3.org/2000/svg">
<path d="M33.3074 8.32473C27.9223 -0.000275195 16.9277 -2.47527 8.40127 2.69973C0.0992053 7.87473 -2.59335 19.1247 2.79177 27.4497L3.24053 28.1247L1.44549 34.8747L8.17689 33.0747L8.85003 33.5247C11.767 35.0997 14.9083 35.9997 18.0496 35.9997C21.4153 35.9997 24.781 35.0997 27.6979 33.2997C36 27.8997 38.4682 16.8747 33.3074 8.32473ZM28.5955 25.6497C27.6979 26.9997 26.576 27.8997 25.0054 28.1247C24.1079 28.1247 22.986 28.5747 18.4984 26.7747C14.6839 24.9747 11.5426 22.0497 9.29879 18.6747C7.95251 17.0997 7.27937 15.0747 7.05499 13.0497C7.05499 11.2497 7.72813 9.67473 8.85003 8.54973C9.29879 8.09973 9.74755 7.87473 10.1963 7.87473H11.3182C11.767 7.87473 12.2157 7.87473 12.4401 8.77473C12.8889 9.89973 14.0108 12.5997 14.0108 12.8247C14.2351 13.0497 14.2351 13.4997 14.0108 13.7247C14.2351 14.1747 14.0108 14.6247 13.7864 14.8497C13.562 15.0747 13.3376 15.5247 13.1132 15.7497C12.6645 15.9747 12.4401 16.4247 12.6645 16.8747C13.562 18.2247 14.6839 19.5747 15.8058 20.6997C17.1521 21.8247 18.4984 22.7247 20.069 23.3997C20.5178 23.6247 20.9665 23.6247 21.1909 23.1747C21.4153 22.7247 22.5372 21.5997 22.986 21.1497C23.4347 20.6997 23.6591 20.6997 24.1079 20.9247L27.6979 22.7247C28.1467 22.9497 28.5955 23.1747 28.8198 23.3997C29.0442 24.0747 29.0442 24.9747 28.5955 25.6497Z" fill="#878787"/>
</svg>
