<svg id="图层_1" data-name="图层 1" xmlns="http://www.w3.org/2000/svg" viewBox="0 0 511.86 70.32"><defs><style>.cls-1{fill:#666;}</style></defs><path class="cls-1" d="M388.08,416.34l-1,.06a7.53,7.53,0,0,0-6.42,6.42l-.06,1V462.6H358V418.74l.06-1.2a12.48,12.48,0,0,1,11.16-11.16l1.2-.06H400.2v10H388.08" transform="translate(-36.78 -392.28)"/><path class="cls-1" d="M36.78,450.18v-57.9H108.6V404H59.52v42.12l.06.78a6.06,6.06,0,0,0,5.34,5.34l.78.06h42.9V462.6H49.2l-1.2-.06a12.48,12.48,0,0,1-11.16-11.16Z" transform="translate(-36.78 -392.28)"/><path class="cls-1" d="M189.42,417.54a12.48,12.48,0,0,0-11.16-11.16l-1.2-.06H118.5v10h42.24v.06l.78.06a6,6,0,0,1,5.34,5.34l.06.78v6.18H118.5v21.48l.06,1.2a12.48,12.48,0,0,0,11.16,11.16l1.2.06h58.56V418.74ZM166.92,455H147.24V455l-.78-.06a6.06,6.06,0,0,1-5.34-5.34l-.06-.78V438h25.86Z" transform="translate(-36.78 -392.28)"/><path class="cls-1" d="M346.56,417.54a12.48,12.48,0,0,0-11.16-11.16l-1.2-.06H275.64v10h42.24v.06l.78.06a6,6,0,0,1,5.34,5.34l.06.78h.06v6.18H275.64v21.48h.06l.06,1.2a12.48,12.48,0,0,0,11.16,11.16l1.2.06h58.5V418.74ZM324.12,455H304.44V455l-.78-.06a6.06,6.06,0,0,1-5.34-5.34l-.06-.78h-.06V438h25.92Z" transform="translate(-36.78 -392.28)"/><path class="cls-1" d="M224.88,427.14,223.8,427a8.71,8.71,0,0,1-6.48-7.38l-.06-1v-2.28H265.8v-10H199.38V421.5l.06,1.32A14.83,14.83,0,0,0,211,436l1.32.24h.06l25.38,3.3,1,.18a10,10,0,0,1,7.56,8.64l.06,1h.06v3h-47.1v10.2H265.8v-17h-.06l-.06-1.32A14.83,14.83,0,0,0,254.1,431l-1.32-.24-27.9-3.6" transform="translate(-36.78 -392.28)"/><path class="cls-1" d="M447.18,452.34h20.7V462.6H430.74l-1.2-.06a12.48,12.48,0,0,1-11.16-11.16l-.06-1.2v-33.9H410v-10h8.34V394.56H441v11.76h26.88v10H441v29.88l.06.78a6.06,6.06,0,0,0,5.34,5.34Z" transform="translate(-36.78 -392.28)"/><path class="cls-1" d="M506.46,452.58l-.78-.06a6.06,6.06,0,0,1-5.34-5.34l-.06-.78h-.06v-6.24h48.42V418.74l-.06-1.2a12.48,12.48,0,0,0-11.16-11.16l-1.2-.06h-58.5v43.86l.06,1.2a12.48,12.48,0,0,0,11.16,11.16l1.2.06h58.5v-10Zm-6.24-38.7H519.9v.06l.78.06a6,6,0,0,1,5.34,5.34l.06.78h.06v10.8H500.22Z" transform="translate(-36.78 -392.28)"/></svg>