<svg id="图层_1" data-name="图层 1" xmlns="http://www.w3.org/2000/svg" xmlns:xlink="http://www.w3.org/1999/xlink" viewBox="0 0 396.85 24.75"><defs><style>.cls-1{fill:none;}.cls-2{clip-path:url(#clip-path);}</style><clipPath id="clip-path" transform="translate(-710.13 -571.19)"><rect class="cls-1" x="710.13" y="571.19" width="396.85" height="24.75"/></clipPath></defs><polygon points="0 0.39 0 24.36 6.25 24.36 6.25 15.85 16.01 15.85 16.01 10.58 6.25 10.58 6.25 5.66 16.86 5.66 16.86 0.39 0 0.39"/><rect x="28.73" y="0.39" width="6.25" height="23.97"/><g class="cls-2"><path d="M757.09,588a15.45,15.45,0,0,0,8.12,2.73c1.83,0,3.55-.43,3.55-2,0-1.13-.82-1.56-2-1.91l-3.63-1.09c-4-1.22-6.13-3.13-6.13-6.91,0-4.57,4-7.58,9.18-7.58a15,15,0,0,1,7.41,1.8v5.78a13.13,13.13,0,0,0-7.26-2.39c-1.87,0-3.2.55-3.2,1.88,0,1,.66,1.36,1.91,1.75l3.63,1.1c4.38,1.36,6.37,3.43,6.37,7,0,5.16-4.65,7.81-9.8,7.81a17,17,0,0,1-8.12-2Z" transform="translate(-710.13 -571.19)"/><polygon points="98.34 0.39 98.34 24.36 92.09 24.36 92.09 14.76 82.92 14.76 82.92 24.36 76.67 24.36 76.67 0.39 82.92 0.39 82.92 9.49 92.09 9.49 92.09 0.39 98.34 0.39"/><polygon points="128.75 0.39 128.75 5.66 117.85 5.66 117.85 9.49 127.81 9.49 127.81 14.76 117.85 14.76 117.85 19.09 128.75 19.09 128.75 24.36 111.61 24.36 111.61 0.39 128.75 0.39"/><path d="M851.71,571.58H861.9c5.35,0,9.41,2.93,9.41,8.28a7.65,7.65,0,0,1-5.23,7.57l6.32,8.12h-7.22l-5.66-7.42H858v7.42h-6.25ZM858,582.86h3.55c2.27,0,3.71-1.17,3.71-3s-1.44-3-3.71-3H858Z" transform="translate(-710.13 -571.19)"/><path d="M909.76,593.56a9.91,9.91,0,0,1-6.63,2.38c-5.08,0-9.29-3.32-9.29-8.78a9.88,9.88,0,0,1,4.29-7.93l-2.38-3v-4.69h16.08v5.27h-8.55l6.48,8.28,1.53-2.27h6.48l-4.61,6.64,4.76,6H911.4Zm-3.28-4.06-5-6.21a4.67,4.67,0,0,0-2.07,3.83,3.63,3.63,0,0,0,3.75,3.67,4.58,4.58,0,0,0,3.35-1.29" transform="translate(-710.13 -571.19)"/><path d="M946.85,595.55H940.6v-24h10.19c5.35,0,9.41,2.93,9.41,8.28s-4.06,8.27-9.41,8.27h-3.94Zm0-12.69h3.55c2.26,0,3.71-1.17,3.71-3s-1.45-3-3.71-3h-3.55Z" transform="translate(-710.13 -571.19)"/><path d="M983.82,591.14h-9.61l-1.72,4.41h-6.12l9.76-24h5.93l9.76,24h-6.29Zm-7.54-5.27h5.47l-2.74-7Z" transform="translate(-710.13 -571.19)"/><polygon points="294.89 24.36 294.89 15.07 285.83 0.39 292.86 0.39 298.2 9.64 303.55 0.39 310.19 0.39 301.13 15.07 301.13 24.36 294.89 24.36"/><polygon points="325.26 10.58 332.91 0.39 340.21 0.39 331.35 11.87 340.56 24.36 333.14 24.36 325.26 13.63 325.26 24.36 319.01 24.36 319.01 0.39 325.26 0.39 325.26 10.58"/><polygon points="366.99 0.39 366.99 5.66 356.1 5.66 356.1 9.49 366.05 9.49 366.05 14.76 356.1 14.76 356.1 19.09 366.99 19.09 366.99 24.36 349.85 24.36 349.85 0.39 366.99 0.39"/><polygon points="379.83 0.39 386.08 0.39 386.08 19.09 396.85 19.09 396.85 24.36 379.83 24.36 379.83 0.39"/></g></svg>