<svg width="211" height="33" viewBox="0 0 211 33" fill="none" xmlns="http://www.w3.org/2000/svg">
<path d="M27.8024 20.6966V19.6542V18.2493V11.587V10.182L28.8901 7.91597L34.3286 3.61043C35.0538 3.02125 36.1415 3.51979 36.1415 4.47154V25.1381C36.1415 26.0899 35.0085 26.5884 34.2833 25.9992L27.8024 20.6966Z" fill="#00AC47"/>
<path d="M9.76274 0.438232L0.970367 9.23061H9.76274V0.438232Z" fill="#EA4335"/>
<path d="M9.76274 9.27563H0.970367V20.742H9.76274V9.27563Z" fill="#2684FC"/>
<path d="M0.970367 20.6973V26.5891C0.970367 28.2206 2.28469 29.535 3.91626 29.535H9.80806V20.7426H0.970367V20.6973Z" fill="#0066DA"/>
<path d="M28.9317 3.33881C28.9317 1.75256 27.6174 0.438232 26.0765 0.438232H20.3206H9.76074V9.23061H20.5473V14.9864L28.9317 14.7145V3.33881Z" fill="#FFBA00"/>
<path d="M20.5473 20.6971H9.76074V29.4894H20.2753H26.0312C27.6174 29.4894 28.8864 28.1751 28.8864 26.5889V14.9866H20.5473V20.6971Z" fill="#00AC47"/>
<path d="M28.9344 7.96118V21.603L20.5499 14.986L28.9344 7.96118Z" fill="#00832D"/>
<path d="M152.479 25.6368H149.896V5.46875H152.479L159.504 17.7509H159.595L166.62 5.46875H169.203V25.6368H166.62V13.6719L166.71 10.2728H166.62L160.32 21.3313H158.779L152.479 10.2728H152.389L152.479 13.6719V25.6368Z" fill="#5F6368"/>
<path d="M179.042 26.0898C177.002 26.0898 175.325 25.41 174.011 24.005C172.697 22.6001 172.017 20.8779 172.017 18.7477C172.017 16.663 172.651 14.8954 173.92 13.4905C175.189 12.0855 176.821 11.3604 178.815 11.3604C180.854 11.3604 182.486 12.0402 183.71 13.3545C184.933 14.6688 185.523 16.527 185.523 18.929L185.477 19.201H174.645C174.691 20.5606 175.144 21.6483 176.005 22.4641C176.866 23.2799 177.908 23.6878 179.087 23.6878C180.718 23.6878 182.033 22.872 182.985 21.1951L185.296 22.3282C184.661 23.5065 183.8 24.4129 182.713 25.0474C181.67 25.7726 180.447 26.0898 179.042 26.0898ZM174.917 17.0709H182.803C182.713 16.1191 182.35 15.3033 181.625 14.7141C180.945 14.0796 179.993 13.7624 178.815 13.7624C177.818 13.7624 177.002 14.0796 176.277 14.6688C175.597 15.258 175.144 16.0738 174.917 17.0709Z" fill="#5F6368"/>
<path d="M194.268 26.0898C192.229 26.0898 190.552 25.41 189.237 24.005C187.923 22.6001 187.243 20.8779 187.243 18.7477C187.243 16.663 187.878 14.8954 189.147 13.4905C190.416 12.0855 192.047 11.3604 194.041 11.3604C196.081 11.3604 197.712 12.0402 198.936 13.3545C200.16 14.6688 200.749 16.527 200.749 18.929L200.704 19.201H189.872C189.917 20.5606 190.37 21.6483 191.231 22.4641C192.093 23.2799 193.135 23.6878 194.313 23.6878C195.945 23.6878 197.259 22.872 198.211 21.1951L200.522 22.3282C199.888 23.5065 199.027 24.4129 197.939 25.0474C196.942 25.7726 195.673 26.0898 194.268 26.0898ZM190.144 17.0709H198.075C197.984 16.1191 197.622 15.3033 196.897 14.7141C196.217 14.0796 195.265 13.7624 194.087 13.7624C193.09 13.7624 192.274 14.0796 191.549 14.6688C190.824 15.258 190.37 16.0738 190.144 17.0709Z" fill="#5F6368"/>
<path d="M208.272 25.863C207.139 25.863 206.187 25.5004 205.462 24.8206C204.737 24.1407 204.375 23.1437 204.329 21.92V14.2153H201.927V11.8133H204.329V7.59839H206.913V11.8133H210.312V14.17H206.913V21.0589C206.913 21.9653 207.094 22.5998 207.456 22.9624C207.819 23.2796 208.227 23.4609 208.68 23.4609C208.907 23.4609 209.088 23.4609 209.269 23.4156C209.496 23.3703 209.677 23.2796 209.813 23.2343L210.629 25.5457C209.949 25.727 209.133 25.863 208.272 25.863Z" fill="#5F6368"/>
<path d="M64.4205 17.1162V14.0343H74.7538C74.8445 14.5782 74.9351 15.2127 74.9351 15.9378C74.9351 18.2492 74.3006 21.1045 72.2612 23.1439C70.267 25.2287 67.729 26.3164 64.3752 26.3164C58.1662 26.3164 52.9542 21.2404 52.9542 15.0314C52.9542 8.82235 58.1662 3.74634 64.3752 3.74634C67.8197 3.74634 70.267 5.10599 72.0799 6.87352L69.9044 9.04895C68.5901 7.82527 66.7773 6.8282 64.3299 6.8282C59.7978 6.8282 56.2627 10.4992 56.2627 15.0314C56.2627 19.5635 59.7978 23.2346 64.3299 23.2346C67.2758 23.2346 68.9527 22.0562 70.0404 20.9685C70.9015 20.1074 71.4907 18.8384 71.7173 17.1162H64.4205Z" fill="#5F6368"/>
<path d="M90.6166 19.02C90.6166 23.1896 87.3534 26.2714 83.3198 26.2714C79.2862 26.2714 76.023 23.1896 76.023 19.02C76.023 14.8051 79.2862 11.7686 83.3198 11.7686C87.3081 11.7686 90.6166 14.8051 90.6166 19.02ZM87.3987 19.02C87.3987 16.3913 85.4952 14.6238 83.3198 14.6238C81.099 14.6238 79.2409 16.3913 79.2409 19.02C79.2409 21.6033 81.1444 23.4162 83.3198 23.4162C85.4952 23.4162 87.3987 21.6033 87.3987 19.02Z" fill="#5F6368"/>
<path d="M106.475 19.02C106.475 23.1896 103.212 26.2714 99.1783 26.2714C95.1447 26.2714 91.8815 23.1896 91.8815 19.02C91.8815 14.8051 95.1447 11.7686 99.1783 11.7686C103.212 11.7686 106.475 14.8051 106.475 19.02ZM103.303 19.02C103.303 16.3913 101.399 14.6238 99.2236 14.6238C97.0029 14.6238 95.1447 16.3913 95.1447 19.02C95.1447 21.6033 97.0482 23.4162 99.2236 23.4162C101.399 23.4162 103.303 21.6033 103.303 19.02Z" fill="#5F6368"/>
<path d="M121.751 12.1756V25.2282C121.751 30.5762 118.578 32.7969 114.862 32.7969C111.327 32.7969 109.242 30.4402 108.426 28.4914L111.191 27.3583C111.689 28.5367 112.913 29.9416 114.862 29.9416C117.264 29.9416 118.759 28.446 118.759 25.6814V24.639H118.669C117.944 25.5001 116.584 26.2706 114.862 26.2706C111.236 26.2706 107.882 23.0981 107.882 19.0192C107.882 14.9402 111.191 11.7224 114.862 11.7224C116.584 11.7224 117.989 12.4929 118.669 13.354H118.759V12.1756H121.751ZM118.941 19.0192C118.941 16.4812 117.218 14.5777 115.043 14.5777C112.822 14.5777 111.009 16.4358 111.009 19.0192C111.009 21.5572 112.868 23.4154 115.043 23.4154C117.218 23.4154 118.941 21.5572 118.941 19.0192Z" fill="#5F6368"/>
<path d="M127.145 4.56226V25.818H123.972V4.56226H127.145Z" fill="#5F6368"/>
<path d="M139.47 21.422L141.962 23.0536C141.147 24.232 139.243 26.2714 135.935 26.2714C131.81 26.2714 128.728 23.0989 128.728 19.02C128.728 14.7145 131.856 11.7686 135.572 11.7686C139.334 11.7686 141.192 14.7598 141.781 16.3914L142.098 17.2071L132.399 21.2407C133.125 22.691 134.303 23.4615 135.935 23.4615C137.475 23.4162 138.609 22.6004 139.47 21.422ZM131.81 18.7934L138.291 16.1194C137.929 15.213 136.841 14.5785 135.617 14.5785C133.986 14.5332 131.765 15.9835 131.81 18.7934Z" fill="#5F6368"/>
</svg>
