<?xml version="1.0" encoding="utf-8"?>
<!-- Generator: Adobe Illustrator 25.0.0, SVG Export Plug-In . SVG Version: 6.00 Build 0)  -->
<svg version="1.1" id="图层_1" xmlns="http://www.w3.org/2000/svg" xmlns:xlink="http://www.w3.org/1999/xlink" x="0px" y="0px"
	 viewBox="0 0 595.22 842" style="enable-background:new 0 0 595.22 842;" xml:space="preserve">
<style type="text/css">
	.st0{fill:#335F98;}
</style>
<polygon class="st0" points="169.38,495.48 169.38,353.34 135.3,353.34 135.3,409.92 68.76,409.92 68.76,353.34 34.68,353.34 
	34.68,495.48 68.76,495.48 68.76,435.54 135.3,435.54 135.3,495.48 "/>
<path class="st0" d="M273.18,392.94v10.2h-0.06l-2.1-1.68l-2.16-1.56c-34.46-22.96-77.58,1.48-79.74,41.82l-0.06,2.76l0.06,2.76
	c2.16,40.34,45.28,64.78,79.74,41.82l2.16-1.56l2.1-1.68h0.06v9.66c0,0,28.2,0,28.2,0V392.94H273.18z M273.6,446.46l-0.24,2.04
	c-5.98,34.11-53.65,32.4-57.24-2.04l-0.06-1.98l0.06-1.98c3.59-34.44,51.26-36.15,57.24-2.04l0.24,2.04l0.06,1.98L273.6,446.46z"/>
<polygon class="st0" points="329.4,392.94 329.4,495.48 361.14,495.48 361.14,392.94 "/>
<polygon class="st0" points="329.4,348.42 361.14,348.42 361.14,378.54 329.4,378.54 "/>
<path class="st0" d="M450.54,392.64l-2.82-0.6l-2.82-0.42c-24.7-3.34-50.08,8.99-60.54,32.04l-1.02,2.52l-0.96,2.52l-0.78,2.64
	l-0.6,2.58c-5.3,24.42,8.29,48.25,30.66,58.44l2.64,1.14l2.64,1.02c23.82,8.29,51.03,1.01,66.48-19.2l1.56-2.28l1.5-2.28l1.38-2.4
	l-22.08-8.16l-0.06,0l-1.08,1.8c-15.3,21.78-48.05,16.99-56.46-8.28l-0.54-2.04h85.68l0.36-2.7l0.12-2.7l0.06-2.64
	C493.28,418.4,474.75,398.19,450.54,392.64z M408.6,433.44l0.78-1.86c11.26-25.42,46.82-25.42,58.08,0c0,0,0.78,1.86,0.78,1.86
	C468.24,433.44,408.6,433.44,408.6,433.44z"/>
<path class="st0" d="M512.16,433.68v61.8h30.9c0,0,0-59.64,0-59.64c0,0,0.12-2.34,0.12-2.34c0.67-6.52,3.61-11.89,8.64-16.08
	l1.86-1.38l21.66-14.34c0,0-14.88-23.7-14.88-23.7l-24.96,14.76l-2.82,1.8c-11.75,8.04-19.51,21.6-20.4,35.82L512.16,433.68z"/>
</svg>
