<svg id="图层_1" data-name="图层 1" xmlns="http://www.w3.org/2000/svg" viewBox="0 0 189.01 52.26"><defs><style>.cls-1{fill:#335f98;}</style></defs><polygon class="cls-1" points="47.09 51.41 47.09 1.72 35.17 1.72 35.17 21.5 11.91 21.5 11.91 1.72 0 1.72 0 51.41 11.91 51.41 11.91 30.46 35.17 30.46 35.17 51.41 47.09 51.41"/><path class="cls-1" d="M84.38,15.92v3.56h0l-.74-.59-.75-.54C70.82,10.32,55.74,18.87,55,33l0,1,0,1C55.74,49,70.82,57.54,82.87,49.52l.75-.55.74-.58h0v3.37h9.85V15.92Zm.14,18.71-.08.71a10.07,10.07,0,0,1-20-.71l0-.7,0-.69a10.07,10.07,0,0,1,20-.71l.08.71,0,.69Z" transform="translate(-1 -0.35)"/><rect class="cls-1" x="103.03" y="15.56" width="11.1" height="35.85"/><rect class="cls-1" x="103.03" width="11.1" height="10.53"/><path class="cls-1" d="M146.38,15.81l-1-.21-1-.15c-8.64-1.16-17.51,3.15-21.17,11.21l-.35.88-.34.88-.27.92-.21.9c-1.85,8.54,2.9,16.87,10.72,20.43l.92.4.92.36a20.74,20.74,0,0,0,23.24-6.72l.55-.79.52-.8.49-.84-7.72-2.85h0l-.38.63a11.1,11.1,0,0,1-19.74-2.9l-.19-.71h30l.13-.94,0-.95,0-.92C161.32,24.82,154.84,17.75,146.38,15.81ZM131.72,30.07l.27-.65a11.06,11.06,0,0,1,20.3,0l.28.65Z" transform="translate(-1 -0.35)"/><path class="cls-1" d="M167.92,30.16v21.6h10.8V30.91l0-.81a8.24,8.24,0,0,1,3-5.63l.66-.48L190,19l-5.2-8.29-8.73,5.16-1,.63A16.65,16.65,0,0,0,168,29Z" transform="translate(-1 -0.35)"/></svg>