<svg id="图层_1" data-name="图层 1" xmlns="http://www.w3.org/2000/svg" viewBox="0 0 541.12 152.43"><path d="M100.83,111.56l0,1.69A40.8,40.8,0,0,0,168,142.7l1.24-1.1h0v10.77h31.84V50H169.22v61.58l0,1.16-.12,1.12a19.69,19.69,0,0,1-18.4,17.4l-1.16,0-1.15,0A19.7,19.7,0,0,1,130,113.84l-.11-1.12,0-1.16h0V50H67.72L32.15,85.52V-.06H-.28V152.37H32.15v-35l35,35h45.6l-51-51,39.07-39.07v49.27" transform="translate(0.28 0.06)"/><polygon points="215.81 152.43 215.81 19.23 247.6 3.31 247.6 152.43 215.81 152.43"/><path d="M336.57,106.06V82.21H353.2V49.81H336.57V15.72L304.19,31.87V49.81H256.34V152.37h32.29V82.21h15.56v23.47l0,1.74a46.68,46.68,0,0,0,44.89,44.89l1.75,0v0h2.34V120h-2.34v0l-.95,0a14.31,14.31,0,0,1-13.31-13.32l0-.94" transform="translate(0.28 0.06)"/><rect x="256.62" width="32.29" height="30.81"/><path d="M540.84,82.36V49.66h-18V15.72L490.5,31.87V49.66H443.3v9.79h0l-1.56-1.09-1.6-1a51.37,51.37,0,0,0-78.3,41.76l0,1.92,0,1.92a51.37,51.37,0,0,0,78.3,41.76l1.6-1,1.56-1.09,0,0v9.79h31.93v-70H490.5v23.32a46.71,46.71,0,0,0,46.67,46.69h3.67V120h-3.67v0l-.95,0a14.31,14.31,0,0,1-13.31-13.32l0-.94V82.36ZM443.1,102.3l-.12,1.3-.18,1.31a24.18,24.18,0,0,1-23.88,20.3l-1.3,0-1.3-.12a24.17,24.17,0,0,1-21.46-21.46l-.12-1.3,0-1.3,0-1.3.12-1.3a24.21,24.21,0,0,1,22.76-21.58l1.3,0,1.3,0A24.2,24.2,0,0,1,442.8,97.09L443,98.4l.12,1.3,0,1.3Z" transform="translate(0.28 0.06)"/></svg>