<svg width="183" height="39" viewBox="0 0 183 39" fill="none" xmlns="http://www.w3.org/2000/svg">
<g clip-path="url(#clip0_1_98)">
<path d="M75.8833 8.29192V30.9436H71.8409V13.1683H71.787L64.5645 30.9436H61.8696L54.4854 13.1683H54.4315V30.9436H50.7125V8.29192H56.5336L63.217 25.0709H63.3248L70.3856 8.29192H75.8833ZM79.225 10.0223C79.225 9.39304 79.4406 8.8687 79.9257 8.44922C80.4108 8.02974 80.9498 7.82001 81.5966 7.82001C82.2972 7.82001 82.8901 8.02974 83.3213 8.44922C83.7525 8.8687 84.022 9.39304 84.022 10.0223C84.022 10.6515 83.8064 11.1758 83.3213 11.5953C82.8362 12.0148 82.2972 12.2245 81.5966 12.2245C80.8959 12.2245 80.3569 12.0148 79.9257 11.5953C79.4945 11.1234 79.225 10.599 79.225 10.0223ZM83.5908 14.6889V30.9436H79.6562V14.6889H83.5908ZM95.5025 28.1646C96.0954 28.1646 96.7421 28.0597 97.4428 27.7451C98.1435 27.4829 98.7903 27.1159 99.3832 26.6964V30.2619C98.7364 30.629 98.0357 30.8912 97.2272 31.0485C96.4187 31.2058 95.5564 31.3106 94.5862 31.3106C92.1068 31.3106 90.1126 30.5766 88.6034 29.056C87.0403 27.5354 86.2858 25.5953 86.2858 23.2882C86.2858 20.6664 87.0942 18.5166 88.6573 16.8387C90.2204 15.1608 92.4302 14.3219 95.3408 14.3219C96.0953 14.3219 96.8499 14.4267 97.5506 14.5841C98.3052 14.7414 98.8981 15.0035 99.3293 15.2133V18.8837C98.7364 18.4642 98.0896 18.0972 97.4967 17.8874C96.8499 17.6777 96.2031 17.5204 95.5564 17.5204C93.9933 17.5204 92.7536 17.9923 91.7834 18.9885C90.8133 19.9848 90.3821 21.2957 90.3821 22.9736C90.3821 24.599 90.8672 25.9099 91.7834 26.8013C92.6997 27.6927 93.9394 28.1646 95.5025 28.1646ZM110.54 14.4267C110.864 14.4267 111.133 14.4267 111.403 14.4792C111.672 14.5316 111.888 14.5841 112.049 14.6365V18.5166C111.834 18.3593 111.564 18.202 111.133 18.0972C110.702 17.9923 110.271 17.8874 109.678 17.8874C108.708 17.8874 107.899 18.3069 107.252 19.0934C106.606 19.8799 106.228 21.0859 106.228 22.7638V30.9436H102.294V14.6889H106.228V17.2582H106.282C106.66 16.3668 107.199 15.6852 107.899 15.1608C108.654 14.6889 109.516 14.4267 110.54 14.4267ZM112.265 23.0784C112.265 20.4043 113.073 18.2545 114.583 16.6814C116.146 15.1084 118.302 14.3219 121.051 14.3219C123.638 14.3219 125.686 15.056 127.141 16.5766C128.596 18.0972 129.351 20.1421 129.351 22.7114C129.351 25.3331 128.542 27.4305 127.033 29.0035C125.47 30.5766 123.368 31.3631 120.673 31.3631C118.086 31.3631 116.038 30.629 114.529 29.1608C113.02 27.6402 112.265 25.5953 112.265 23.0784ZM116.361 22.9211C116.361 24.599 116.739 25.9099 117.547 26.8013C118.356 27.6927 119.487 28.1646 120.943 28.1646C122.344 28.1646 123.476 27.7451 124.231 26.8013C124.985 25.9099 125.362 24.599 125.362 22.8163C125.362 21.0859 124.985 19.7751 124.231 18.8312C123.476 17.9399 122.344 17.4679 120.997 17.4679C119.541 17.4679 118.463 17.9399 117.655 18.8837C116.739 19.8799 116.361 21.1908 116.361 22.9211ZM135.226 18.9885C135.226 19.5129 135.388 19.9848 135.765 20.2994C136.142 20.614 136.897 20.9811 138.136 21.453C139.7 22.0822 140.831 22.7638 141.424 23.4979C142.071 24.2844 142.394 25.1758 142.394 26.2769C142.394 27.7975 141.802 29.0035 140.562 29.9473C139.376 30.8912 137.705 31.3106 135.657 31.3106C134.956 31.3106 134.202 31.2058 133.339 31.0485C132.477 30.8912 131.776 30.6814 131.184 30.4193V26.644C131.884 27.1159 132.693 27.5354 133.501 27.7975C134.31 28.0597 135.064 28.217 135.765 28.217C136.627 28.217 137.328 28.1121 137.705 27.85C138.136 27.5878 138.352 27.2208 138.352 26.644C138.352 26.1196 138.136 25.7002 137.705 25.2807C137.274 24.9136 136.412 24.4942 135.226 24.0223C133.771 23.4455 132.747 22.7638 132.154 22.0297C131.561 21.2957 131.237 20.3518 131.237 19.1983C131.237 17.7301 131.83 16.5241 133.016 15.5803C134.202 14.6365 135.765 14.1646 137.651 14.1646C138.244 14.1646 138.891 14.217 139.592 14.3743C140.292 14.5316 140.939 14.6889 141.424 14.8462V18.5691C140.885 18.2545 140.292 17.9399 139.592 17.6777C138.891 17.4155 138.19 17.3106 137.544 17.3106C136.789 17.3106 136.196 17.4679 135.819 17.7301C135.442 18.0972 135.226 18.4642 135.226 18.9885ZM144.065 23.0784C144.065 20.4043 144.874 18.2545 146.383 16.6814C147.946 15.1084 150.102 14.3219 152.851 14.3219C155.438 14.3219 157.486 15.056 158.941 16.5766C160.397 18.0972 161.151 20.1421 161.151 22.7114C161.151 25.3331 160.343 27.4305 158.834 29.0035C157.271 30.5766 155.169 31.3631 152.474 31.3631C149.886 31.3631 147.838 30.629 146.329 29.1608C144.874 27.6402 144.065 25.5953 144.065 23.0784ZM148.162 22.9211C148.162 24.599 148.539 25.9099 149.347 26.8013C150.156 27.6927 151.288 28.1646 152.743 28.1646C154.144 28.1646 155.276 27.7451 156.031 26.8013C156.785 25.9099 157.163 24.599 157.163 22.8163C157.163 21.0859 156.785 19.7751 156.031 18.8312C155.276 17.9399 154.144 17.4679 152.797 17.4679C151.342 17.4679 150.264 17.9399 149.455 18.8837C148.593 19.8799 148.162 21.1908 148.162 22.9211ZM174.249 17.835H168.374V30.9436H164.385V17.835H161.582V14.6889H164.385V12.4342C164.385 10.7563 164.978 9.34061 166.11 8.23948C167.242 7.13836 168.697 6.61401 170.476 6.61401C170.961 6.61401 171.392 6.66645 171.769 6.66645C172.147 6.66645 172.47 6.77132 172.74 6.87619V10.1796C172.632 10.1271 172.362 10.0223 172.039 9.91738C171.715 9.81252 171.338 9.76008 170.907 9.76008C170.099 9.76008 169.452 10.0223 169.021 10.4942C168.589 10.9661 168.374 11.7526 168.374 12.6964V14.6365H174.249V10.9661L178.183 9.81251V14.6365H182.172V17.7826H178.183V25.3855C178.183 26.3818 178.399 27.0634 178.722 27.4829C179.1 27.9024 179.693 28.1121 180.501 28.1121C180.717 28.1121 180.986 28.0597 181.309 27.9548C181.633 27.85 181.902 27.7451 182.118 27.5878V30.7339C181.848 30.8912 181.471 30.996 180.878 31.1009C180.285 31.2058 179.746 31.2582 179.154 31.2582C177.483 31.2582 176.243 30.8387 175.435 29.9998C174.626 29.1608 174.195 27.85 174.195 26.1196L174.249 17.835Z" fill="#737373"/>
<path d="M0.211365 0.741455H18.6448V18.674H0.211365V0.741455Z" fill="#F25022"/>
<path d="M20.5835 0.741455H39.0169V18.674H20.5835V0.741455Z" fill="#7FBA00"/>
<path d="M0.211365 20.562H18.6448V38.4946H0.211365V20.562Z" fill="#00A4EF"/>
<path d="M20.5835 20.5618H39.0169V38.4944H20.5835V20.5618Z" fill="#FFB900"/>
</g>
<defs>
<clipPath id="clip0_1_98">
<rect width="182.022" height="37.7528" fill="white" transform="translate(0.179749 0.741455)"/>
</clipPath>
</defs>
</svg>
