<?xml version="1.0" encoding="utf-8"?>
<!-- Generator: Adobe Illustrator 25.0.0, SVG Export Plug-In . SVG Version: 6.00 Build 0)  -->
<svg version="1.1" id="图层_1" xmlns="http://www.w3.org/2000/svg" xmlns:xlink="http://www.w3.org/1999/xlink" x="0px" y="0px"
	 viewBox="0 0 149.59 26.28" style="enable-background:new 0 0 149.59 26.28;" xml:space="preserve">
<style type="text/css">
	.st0{fill:#D41819;}
	.st1{fill:#1A1A18;}
</style>
<path class="st0" d="M41.63,20.32c-1.93,0-3.5-0.84-3.5-3.9c0-3.06,1.57-3.9,3.5-3.9c1.93,0,3.5,0.84,3.5,3.9
	C45.13,19.48,43.56,20.32,41.63,20.32 M41.65,6.02c-7.47,0-13.52,1.97-13.52,10.13c0,8.16,6.05,10.13,13.52,10.13
	c7.47,0,13.52-2.15,13.52-10.13C55.17,8.05,49.12,6.02,41.65,6.02"/>
<path class="st0" d="M17.96,6.35c-2.98,0-6.08,1.12-7.09,2.93V7.26c0-0.33-0.27-0.6-0.6-0.6H0.6C0.27,6.66,0,6.93,0,7.26v17.79
	c0,0.33,0.27,0.6,0.6,0.6h9.68c0.33,0,0.6-0.27,0.6-0.6V16.3c0-1.4,1.26-2.52,2.66-2.52l0.3-0.01c1.94,0,2.67,1.13,2.67,2.53v3.75
	v5.15c0,0.24,0.2,0.44,0.45,0.44h9.98c0.25,0,0.45-0.2,0.45-0.44v-7.25C27.46,11.42,27.48,6.21,17.96,6.35"/>
<path class="st0" d="M95.04,25.65h-9.68c-0.33,0-0.6-0.27-0.6-0.6V7.26c0-0.33,0.27-0.6,0.6-0.6h9.68c0.33,0,0.6,0.27,0.6,0.6v17.8
	C95.63,25.38,95.37,25.65,95.04,25.65"/>
<path class="st0" d="M95.04,5.22h-9.68c-0.33,0-0.6-0.27-0.6-0.59V0.91c0-0.33,0.27-0.59,0.6-0.59h9.68c0.33,0,0.59,0.27,0.59,0.59
	v3.72C95.63,4.95,95.37,5.22,95.04,5.22"/>
<path class="st0" d="M107.49,25.65H98c-0.38,0-0.69-0.31-0.69-0.69V1c0-0.38,0.31-0.69,0.69-0.69h9.49c0.38,0,0.69,0.31,0.69,0.69
	v23.96C108.18,25.34,107.87,25.65,107.49,25.65"/>
<path class="st0" d="M120.25,25.65h-9.68c-0.33,0-0.6-0.27-0.6-0.6V7.26c0-0.33,0.27-0.6,0.6-0.6h9.68c0.33,0,0.6,0.27,0.6,0.6v17.8
	C120.85,25.38,120.58,25.65,120.25,25.65"/>
<path class="st0" d="M120.25,5.22h-9.68c-0.33,0-0.6-0.27-0.6-0.59V0.91c0-0.33,0.27-0.59,0.6-0.59h9.68c0.33,0,0.59,0.27,0.59,0.59
	v3.72C120.85,4.95,120.58,5.22,120.25,5.22"/>
<path class="st0" d="M69.96,20.32c-1.87,0-3.38-0.84-3.38-3.9c0-3.06,1.51-3.9,3.38-3.9c1.87,0,3.38,0.84,3.38,3.9
	C73.34,19.48,71.83,20.32,69.96,20.32 M73.5,6.16c-2.75,0-5.04,0.92-6.68,2.64v-8c0-0.38-0.31-0.69-0.69-0.69h-9.48
	c-0.38,0-0.69,0.31-0.69,0.69v24.16c0,0.38,0.31,0.69,0.69,0.69h9.48c0.38,0,0.69-0.31,0.69-0.69v-1.31
	c1.61,1.45,3.89,2.28,6.79,2.28c8.2,0,10.12-4.42,10.12-9.88C83.73,10.59,81.42,6.16,73.5,6.16"/>
<path class="st0" d="M132.2,16.42c0-3.06,1.51-3.9,3.38-3.9c1.87,0,3.38,0.84,3.38,3.9c0,3.06-1.51,3.9-3.38,3.9
	C133.71,20.32,132.2,19.48,132.2,16.42 M121.81,16.04c0,5.46,1.92,9.88,10.12,9.88c2.9,0,5.19-0.83,6.79-2.28v1.31
	c0,0.38,0.31,0.69,0.69,0.69h9.48c0.38,0,0.69-0.31,0.69-0.69V7.34c0-0.38-0.31-0.69-0.69-0.69h-9.48c-0.38,0-0.69,0.31-0.69,0.69
	v1.66c-1.64-1.72-3.93-2.63-6.68-2.63C124.12,6.36,121.81,9.81,121.81,16.04"/>
<path class="st1" d="M147.1,4.79c-1.21,0-2.19-1-2.19-2.24c0-1.23,0.98-2.24,2.19-2.24c1.21,0,2.19,1,2.19,2.24
	C149.28,3.79,148.31,4.79,147.1,4.79 M147.1,0c-1.38,0-2.49,1.14-2.49,2.55c0,1.41,1.12,2.55,2.49,2.55s2.49-1.14,2.49-2.55
	C149.59,1.14,148.47,0,147.1,0"/>
<path class="st1" d="M147.19,2.4h-0.61v-0.5V1.49h0.61c0.31,0,0.57,0.08,0.54,0.42C147.73,2.21,147.46,2.4,147.19,2.4 M147.65,2.74
	c0.12-0.08,0.23-0.15,0.31-0.23c0.15-0.15,0.27-0.34,0.27-0.61c0-0.53-0.49-0.84-1.03-0.84h-1.1v0.31v1.66v0.92h0.5V2.82h0.53
	l0.65,1.14h0.57L147.65,2.74z"/>
</svg>
