<svg id="图层_1" data-name="图层 1" xmlns="http://www.w3.org/2000/svg" viewBox="0 0 240.76 43.15"><defs><style>.cls-1,.cls-2{fill:#727171;}.cls-1{fill-rule:evenodd;}</style></defs><path class="cls-1" d="M122.52,27.63V42.11c0,1.52-1.7,2.78-3.78,2.78S115,43.63,115,42.11h0V30.31a2,2,0,0,0-2.24-2.19,2.14,2.14,0,0,0-2.41,2.29h0v11.7c0,1.52-1.69,2.78-3.77,2.78s-3.77-1.26-3.77-2.78h0V30.31a2,2,0,0,0-2.29-2.19,2.08,2.08,0,0,0-2.35,2.24h0V42.11c0,1.52-1.69,2.78-3.77,2.78s-3.77-1.26-3.77-2.78h0V24.68c0-1.54,1.69-2.79,3.77-2.79A3.66,3.66,0,0,1,98,24.08a7.37,7.37,0,0,1,5.3-2.57,6.91,6.91,0,0,1,6.29,3.33,7.58,7.58,0,0,1,5.89-3.33c4.6,0,7,3.17,7,6.12Zm56.87-5.75c-2.07,0-3.77,1.25-3.77,2.79h0V35.76a2.46,2.46,0,0,1-4.92,0h0V24.67c0-1.54-1.69-2.79-3.77-2.79s-3.77,1.25-3.77,2.79h0V37.46c.11,3.1,2.46,5.78,5.74,7a12.31,12.31,0,0,0,4.27.76,11.8,11.8,0,0,0,4.2-.76c3.34-1.21,5.68-3.89,5.79-7.05h0V24.67c0-1.54-1.69-2.79-3.77-2.79Zm-41.84,6.78c-2.43,0-3.83,2.34-3.83,4.59s1.4,4.6,3.83,4.6,3.77-2.36,3.77-4.6S140,28.66,137.55,28.66Zm8.07-4.15a12.39,12.39,0,0,1,3.44,8.74A12.4,12.4,0,0,1,145.62,42a8.58,8.58,0,0,1-11.75.65h0v8.58a2.39,2.39,0,0,1-.82,1.8,4.21,4.21,0,0,1-3.11,1.21A4.39,4.39,0,0,1,126.83,53a2.52,2.52,0,0,1-.77-1.8h0V25.06c0-1.64,1.75-3,3.88-3a4,4,0,0,1,3.71,2,8.57,8.57,0,0,1,5.75-2.25,8.78,8.78,0,0,1,6.22,2.68Zm10.17-13.39c-2.19,0-3.93,1.31-3.93,3h0v28.2c0,2,2.09,3,3.93,3s3.88-1,3.88-3h0V14.07C159.67,12,157.6,11.12,155.79,11.12Zm38.86,16.67a4.11,4.11,0,0,1,1.47.6,6.55,6.55,0,0,0,2.95,1,2.84,2.84,0,0,0,2-.82,2.65,2.65,0,0,0,.76-1.92,3.54,3.54,0,0,0-1.09-2.56c-1.3-1.32-3.82-2.08-6.72-2.08a7.4,7.4,0,0,0-7.76,7.21c0,3.34,1.64,4.64,4.76,6,3.33,1.48,3.82,1.81,3.82,2.85,0,.37-.38.92-1.36.92a3.71,3.71,0,0,1-2.25-.66,4,4,0,0,0-2.51-.76c-1.53,0-2.67,1.37-2.67,3.23a2.52,2.52,0,0,0,.87,1.91c1.25,1.26,3.87,2.08,6.72,2.08a8.5,8.5,0,0,0,6.11-2.3,6.92,6.92,0,0,0,2-5c0-4.37-3.34-5.8-5.75-6.89-1.3-.54-2.39-1-2.39-1.69A1.12,1.12,0,0,1,194.65,27.79ZM56.77,33.24c0-2.57-1.8-4.69-4-4.69s-3.93,2.12-3.93,4.69,1.8,4.7,3.93,4.7,4-2.12,4-4.7Zm7.33-8.56V42.11c0,1.52-1.69,2.78-3.77,2.78-1.81,0-3.27-.87-3.66-2.13A8.87,8.87,0,0,1,51,44.84c-5.41,0-9.78-5.19-9.78-11.59S45.63,21.67,51,21.67a8.64,8.64,0,0,1,5.68,2.13,3.9,3.9,0,0,1,3.61-1.91c2.08,0,3.77,1.25,3.77,2.79Zm19.5-2.8c-2.13,0-3.77,1.25-3.77,2.79h0V35.76a2.44,2.44,0,0,1-2.51,2.35,2.39,2.39,0,0,1-2.46-2.35h0V24.67c0-1.54-1.7-2.79-3.77-2.79s-3.77,1.25-3.77,2.79h0V37.46c.11,3.1,2.46,5.78,5.79,7a12,12,0,0,0,4.21.76,12.34,12.34,0,0,0,4.26-.76c3.33-1.21,5.62-3.89,5.79-7.05h0V24.67c0-1.54-1.69-2.79-3.77-2.79ZM37,21.4a2.83,2.83,0,0,0-2.79,1.42c-.39.65-.55,1.2-.77,1.2s-.16-.11-.22-.38h0a3.9,3.9,0,0,0-3.66-2c-2.08,0-3.77,1.25-3.77,2.78h0V42.11c0,1.52,1.69,2.78,3.77,2.78s3.77-1.26,3.77-2.78V34.89c0-3.27,0-5.35,3.06-5.35s4.21-1.58,4.21-4.1a3.78,3.78,0,0,0-3.6-4ZM206.44,11.09a4.58,4.58,0,0,1,2.18.57,4.08,4.08,0,0,1,1.67,1.65,4.52,4.52,0,0,1,0,4.45,4.22,4.22,0,0,1-1.65,1.65,4.52,4.52,0,0,1-4.43,0,4.29,4.29,0,0,1-1.65-1.65,4.46,4.46,0,0,1,0-4.45,4.14,4.14,0,0,1,1.67-1.65A4.59,4.59,0,0,1,206.44,11.09Zm0,.73a3.8,3.8,0,0,0-1.83.49,3.42,3.42,0,0,0-1.4,1.37,3.81,3.81,0,0,0-.49,1.86,3.74,3.74,0,0,0,.49,1.85,3.54,3.54,0,0,0,1.37,1.37,3.67,3.67,0,0,0,3.7,0,3.5,3.5,0,0,0,1.38-1.37,3.69,3.69,0,0,0,0-3.71,3.26,3.26,0,0,0-1.38-1.37A3.86,3.86,0,0,0,206.44,11.82Zm-2,6.18V13.21h1.65a4.47,4.47,0,0,1,1.23.13,1.29,1.29,0,0,1,.59.47,1.21,1.21,0,0,1,.23.69,1.28,1.28,0,0,1-.38.92,1.47,1.47,0,0,1-1,.44,1.37,1.37,0,0,1,.4.25,5.25,5.25,0,0,1,.71.95l.59.94h-.95l-.42-.75a3.82,3.82,0,0,0-.81-1.12,1,1,0,0,0-.62-.16h-.45v2Zm.78-2.69h.93a1.46,1.46,0,0,0,.92-.21.65.65,0,0,0,.25-.52.69.69,0,0,0-.12-.38.71.71,0,0,0-.33-.26,2.69,2.69,0,0,0-.78-.08h-.87Z" transform="translate(-25.74 -11.09)"/><path class="cls-2" d="M216.23,30.23l0,.07.05-.05a40,40,0,0,0,6-6.86l0-.06-2.67-1.08h0l0,0a25.09,25.09,0,0,1-4.76,5.48l0,0,0,0A20.73,20.73,0,0,1,216.23,30.23Z" transform="translate(-25.74 -11.09)"/><path class="cls-2" d="M228.27,27.53h-5v6.61h13.91V27.53h-6.06c0-.31.09-.64.15-1l0-.17h6.61V24h-6.28l.24-1.66v-.06l-3.15-.1h-.06v.13c0,.53,0,1.08-.09,1.69h-6.2v2.41h6C228.36,26.79,228.31,27.17,228.27,27.53Zm6.45,2.17V32H233V29.7Zm-3.76,0V32h-1.61V29.7ZM225.69,32V29.7h1.56V32Z" transform="translate(-25.74 -11.09)"/><path class="cls-2" d="M238,35.14H222.09v2.44h7l-.94.32-.06,0,0,0c.51,1,1.17,2.23,1.47,3l0,0,2.31-.83.05,0,0,0c-.32-.68-.87-1.71-1.36-2.53H238Z" transform="translate(-25.74 -11.09)"/><path class="cls-2" d="M222.9,38.44l0,.06A13.15,13.15,0,0,1,221,43l0,0,2.24,1.28,0,0,0,0a16.7,16.7,0,0,0,1.95-5v0L223,38.46Z" transform="translate(-25.74 -11.09)"/><path class="cls-2" d="M235.65,38.33l0,0-2.23,1,0,.05a15.6,15.6,0,0,1,2.44,4.7l0,.06,2.34-1,0,0v0A18.41,18.41,0,0,0,235.65,38.33Z" transform="translate(-25.74 -11.09)"/><path class="cls-2" d="M222.79,28.58l-2.66-.95,0,0,0,.05a26.61,26.61,0,0,1-5.34,7.45l0,0,0,0a22.56,22.56,0,0,1,1.59,2.72l0,.06,0-.05A23.78,23.78,0,0,0,218.07,36v9.25h2.83V32c.7-1.13,1.32-2.27,1.86-3.36Z" transform="translate(-25.74 -11.09)"/><path class="cls-2" d="M232.35,40.63l-.08-.05v.09c-.07,1.8-.23,2-.85,2H229c-.8,0-.9-.07-.9-.64V39h-2.66v3c0,2.23.72,2.88,3.2,2.88h3c2,0,2.64-.77,2.9-3.39v0h-.05A7.81,7.81,0,0,1,232.35,40.63Z" transform="translate(-25.74 -11.09)"/><path class="cls-2" d="M254.61,38l0,0,2-1.58,0,0,0,0a14.51,14.51,0,0,0-2.76-2.71l0,0L252,35.08l-.06,0,.05,0A15.39,15.39,0,0,1,254.61,38Z" transform="translate(-25.74 -11.09)"/><path class="cls-2" d="M266.41,41A11.33,11.33,0,0,1,262,38.15a43.09,43.09,0,0,0,3.88-2.94l.06-.05-2.4-1.41,0,0,0,0a29.09,29.09,0,0,1-2.82,2.68c-.16-.25-.3-.5-.43-.74V33.16h5.55V30.53h-1.59c.16-2.24.29-5.05.34-7.51V23l-2.12-.12h0l-.35.1h-9.35V25.5h8.86l-.05,1.34h-8.42v2.29h8.3c0,.25,0,.5-.05.74s0,.44-.05.66H252v2.63h5.45v3.75c-2,1.31-4.6,2.92-6.23,3.84l-.05,0,1.61,2.32,0,0c1.47-1,3.11-2.2,4.63-3.35v2.62c0,.23-.06.29-.31.32s-1.18,0-2,0H255l0,.09a9.62,9.62,0,0,1,.81,2.48v0h0a7.57,7.57,0,0,0,3.29-.45c.89-.45,1.06-1.22,1.06-2.38V39.77a12,12,0,0,0,4.34,3.58l0,0,0,0a9.11,9.11,0,0,1,1.76-2.2l.07-.06Z" transform="translate(-25.74 -11.09)"/><path class="cls-2" d="M252.47,35.86l0,0c-.44-.52-2.08-2.28-3-3.22a24.12,24.12,0,0,0,2.83-5.25l0,0-1.56-1.11h0l-.48.13h-1.84l1.6-.94,0,0,0,0a12.92,12.92,0,0,0-2.22-3.11l0,0-2.32,1.27-.06,0,0,.05a16,16,0,0,1,1.87,2.79h-4v2.73h5.29a17.21,17.21,0,0,1-5.93,6.24l0,0,0,0a12.05,12.05,0,0,1,1.07,2.88l0,.08.07,0a21.35,21.35,0,0,0,2.3-1.82v8.78h2.83v-9.6a28.69,28.69,0,0,1,1.67,2.42l0,.07,1.79-2.25Z" transform="translate(-25.74 -11.09)"/></svg>