<?xml version="1.0" encoding="utf-8"?>
<!-- Generator: Adobe Illustrator 25.0.0, SVG Export Plug-In . SVG Version: 6.00 Build 0)  -->
<svg version="1.1" id="图层_1" xmlns="http://www.w3.org/2000/svg" xmlns:xlink="http://www.w3.org/1999/xlink" x="0px" y="0px"
	 viewBox="0 0 541.12 152.43" style="enable-background:new 0 0 541.12 152.43;" xml:space="preserve">
<style type="text/css">
	.st0{fill:#B27E18;}
</style>
<g>
	<g>
		<g id="LWPOLYLINE_63_">
			<path class="st0" d="M249.85,19.29l0.51-1.12c-30.94-14.13-67.47-0.49-81.6,30.45s-0.49,67.47,30.45,81.6s67.47,0.49,81.6-30.45
				c12.26-26.84,3.75-58.61-20.29-75.73c0,0-0.71,1-0.71,1c23.55,16.78,31.89,47.91,19.88,74.22
				c-13.84,30.32-49.65,43.68-79.97,29.84s-43.68-49.65-29.84-79.97C183.73,18.81,219.53,5.45,249.85,19.29z"/>
		</g>
		<g id="LWPOLYLINE_62_">
			<path class="st0" d="M205.05,19.51l0.42,1.16c-29.56,10.67-44.88,43.28-34.21,72.84c8.8,24.38,32.96,39.74,58.77,37.35l0.11,1.23
				c-26.37,2.44-51.05-13.25-60.04-38.16C159.2,63.72,174.85,30.4,205.05,19.51z"/>
		</g>
		<g id="LWPOLYLINE_61_">
			<path class="st0" d="M249.28,126.92l-0.52-1.12c28.5-13.24,40.87-47.08,27.63-75.58c-3.79-8.15-9.45-15.29-16.53-20.83
				c0,0,0.76-0.97,0.76-0.97c7.23,5.66,13.02,12.95,16.89,21.28C291.04,78.82,278.4,113.39,249.28,126.92z"/>
		</g>
		<g id="LWPOLYLINE_60_">
			<path class="st0" d="M226.34,19.53l-0.04,1.23c-29.51-0.84-54.12,22.4-54.96,51.91c-0.15,5.43,0.52,10.86,2,16.09
				c0,0-1.19,0.34-1.19,0.34c-1.52-5.35-2.21-10.9-2.05-16.46C170.98,42.44,196.15,18.67,226.34,19.53z"/>
		</g>
		<g id="LWPOLYLINE_59_">
			<path class="st0" d="M173.34,92.74l1.16-0.42c6.59,18.27,22.56,31.53,41.73,34.64l-0.2,1.22
				C196.42,125,180.07,111.43,173.34,92.74z"/>
		</g>
		<g id="LWPOLYLINE_58_">
			<path class="st0" d="M272.21,101.41l-1.07-0.61c9.68-16.86,9.44-37.65-0.63-54.28c0,0,1.05-0.64,1.05-0.64
				C281.87,62.9,282.12,84.16,272.21,101.41z"/>
		</g>
		<g id="CIRCLE_1_">
			<path class="st0" d="M252.43,22.19c0-1.36,1.1-2.46,2.46-2.46c1.36,0,2.46,1.1,2.46,2.46s-1.1,2.46-2.46,2.46
				C253.53,24.65,252.43,23.55,252.43,22.19L252.43,22.19z"/>
		</g>
	</g>
	<g>
		<g id="LWPOLYLINE_57_">
			<rect x="220.26" y="43.51" width="9.04" height="0.61"/>
		</g>
		<g id="LWPOLYLINE_56_">
			<polygon points="232.41,54.7 232.36,53.22 232.33,51.64 232.33,49.96 232.33,36.14 233.15,35.55 231.41,34.23 230.93,34.94 
				230.93,56.13 232.43,55.32 			"/>
		</g>
		<g id="LWPOLYLINE_55_">
			<rect x="220.26" y="52.89" width="9.04" height="0.61"/>
		</g>
		<g id="LWPOLYLINE_54_">
			<rect x="220.26" y="35.25" width="9.04" height="0.59"/>
		</g>
		<g id="LWPOLYLINE_53_">
			<polygon points="217.44,36.16 217.46,37.82 217.46,39.43 217.49,40.98 217.49,42.49 217.49,43.97 217.51,45.37 217.51,45.4 
				217.49,46.85 217.49,48.33 217.49,49.86 217.46,51.41 217.46,53.02 217.44,54.65 217.41,56.34 218.92,55.42 218.92,35.25 
				217.41,34.23 217.41,34.48 			"/>
		</g>
		<g id="LWPOLYLINE_52_">
			<polygon points="233.58,106.76 233.55,105.2 233.53,103.62 233.53,102.45 233.53,100.86 233.53,99.33 234.45,98.62 232.84,97.22 
				232.13,97.91 232.13,108.52 233.63,107.8 			"/>
		</g>
		<g id="LWPOLYLINE_51_">
			<polygon points="215.98,104.36 215.96,106.02 215.93,107.55 215.88,108.92 217.39,108.21 217.39,98.16 215.88,97.42 
				215.93,98.59 215.96,100.12 215.98,101.71 215.98,103.36 			"/>
		</g>
		<g id="LWPOLYLINE_50_">
			<rect x="218.93" y="106.09" width="11.88" height="0.61"/>
		</g>
		<g id="LWPOLYLINE_49_">
			<rect x="218.93" y="102.06" width="11.88" height="0.59"/>
		</g>
		<g id="LWPOLYLINE_48_">
			<rect x="218.93" y="98.21" width="11.88" height="0.61"/>
		</g>
		<g id="LWPOLYLINE_47_">
			<rect x="221.14" y="94.28" width="7.52" height="0.61"/>
		</g>
		<g id="LWPOLYLINE_46_">
			<polygon points="231.36,93.72 231.34,92.22 231.31,90.31 231.31,88.04 232.33,87.32 230.62,85.92 229.91,86.77 229.91,96.1 
				231.41,95.38 231.39,94.82 			"/>
		</g>
		<g id="LWPOLYLINE_45_">
			<polygon points="218.35,94.87 218.3,96.4 219.81,95.69 219.81,86.91 218.3,86.1 218.33,86.68 218.38,88.24 218.41,89.8 
				218.41,91.35 218.41,91.73 218.38,93.32 			"/>
		</g>
		<g id="LWPOLYLINE_44_">
			<rect x="221.14" y="90.64" width="7.52" height="0.61"/>
		</g>
		<g id="LWPOLYLINE_43_">
			<rect x="221.14" y="87.02" width="7.52" height="0.61"/>
		</g>
		<g id="LWPOLYLINE_42_">
			<polyline points="201.15,71.94 201.15,71.94 201.42,71.96 201.64,72 201.84,72.08 202,72.19 202.08,72.28 202.2,72.45 
				202.27,72.66 202.29,72.9 202.28,73.12 202.22,73.33 202.12,73.53 201.97,73.69 201.97,73.7 201.8,73.83 201.6,73.92 
				201.38,73.97 201.14,73.99 200.25,73.99 200.25,74.65 200.79,74.65 200.96,74.66 201.18,74.72 201.37,74.82 201.46,74.9 
				201.6,75.05 201.75,75.24 201.9,75.48 202.86,77.1 203.75,77.1 202.66,75.35 202.59,75.25 202.45,75.03 202.32,74.85 
				202.21,74.71 202.17,74.68 201.99,74.53 201.79,74.42 201.79,74.41 201.86,74.38 202.1,74.3 202.3,74.2 202.49,74.09 
				202.64,73.96 202.78,73.81 202.89,73.65 202.97,73.47 203.03,73.27 203.07,73.06 203.08,72.84 203.07,72.65 203.04,72.42 
				202.97,72.21 202.88,72.02 202.76,71.84 202.6,71.69 202.56,71.66 202.39,71.54 202.2,71.45 202,71.38 201.78,71.32 
				201.53,71.29 201.27,71.28 200.25,71.28 200.25,71.94 201.15,71.94 			"/>
		</g>
		<g id="LWPOLYLINE_41_">
			<rect x="199.01" y="71.28" width="0.75" height="5.81"/>
		</g>
		<g id="LWPOLYLINE_40_">
			<rect x="207.61" y="71.28" width="0.75" height="5.81"/>
		</g>
		<g id="LWPOLYLINE_39_">
			<polygon points="214.86,77.19 215.11,77.19 215.18,77.19 215.43,77.18 215.68,77.16 215.91,77.13 216.13,77.08 216.34,77.02 
				216.53,76.94 216.72,76.86 216.72,76.14 216.55,76.23 216.35,76.32 216.14,76.4 215.93,76.45 215.7,76.49 215.46,76.52 
				215.22,76.53 215.11,76.53 214.88,76.5 214.65,76.46 214.44,76.4 214.24,76.31 214.06,76.2 213.88,76.06 213.72,75.91 
				213.6,75.76 213.48,75.58 213.38,75.4 213.3,75.19 213.23,74.98 213.19,74.75 213.16,74.51 213.15,74.26 213.16,74.14 
				213.17,73.9 213.2,73.66 213.25,73.44 213.32,73.23 213.41,73.03 213.51,72.84 213.63,72.67 213.76,72.51 213.9,72.38 
				214.07,72.24 214.25,72.12 214.45,72.03 214.66,71.96 214.88,71.9 215.11,71.87 215.35,71.86 215.41,71.86 215.64,71.87 
				215.87,71.9 216.09,71.95 216.31,72.02 216.52,72.1 216.72,72.2 216.72,71.42 216.69,71.41 216.51,71.34 216.3,71.29 
				216.09,71.24 215.85,71.21 215.61,71.19 215.34,71.18 215.21,71.19 214.97,71.2 214.75,71.24 214.52,71.28 214.31,71.34 
				214.11,71.42 213.91,71.51 213.72,71.62 213.54,71.75 213.37,71.89 213.21,72.04 213.06,72.2 212.93,72.37 212.81,72.55 
				212.7,72.74 212.62,72.93 212.54,73.14 212.48,73.35 212.43,73.58 212.39,73.81 212.37,74.05 212.36,74.3 212.36,74.33 
				212.37,74.59 212.4,74.83 212.43,75.06 212.49,75.28 212.56,75.49 212.64,75.69 212.74,75.88 212.84,76.06 212.97,76.24 
				213.11,76.4 213.25,76.53 213.41,76.67 213.59,76.79 213.77,76.9 213.97,76.99 214.18,77.06 214.39,77.12 214.62,77.16 			"/>
		</g>
		<g id="LWPOLYLINE_38_">
			<rect x="225.07" y="71.28" width="0.75" height="5.81"/>
		</g>
		<g id="LWPOLYLINE_37_">
			<polygon points="224.58,74.48 224.58,73.81 222.13,73.81 222.13,71.28 221.38,71.28 221.38,77.1 222.13,77.1 222.13,74.48 			"/>
		</g>
		<g id="LWPOLYLINE_36_">
			<polygon points="230.92,75.5 232.83,75.5 232.59,74.85 231.16,74.85 231.87,72.88 231.51,71.9 229.53,77.1 230.36,77.1 			"/>
		</g>
		<g id="LWPOLYLINE_35_">
			<polygon points="231.81,71.28 233.93,77.1 234.76,77.1 232.55,71.28 			"/>
		</g>
		<g id="LWPOLYLINE_34_">
			<polygon points="249.05,71.95 250.73,71.95 250.73,71.28 246.63,71.28 246.63,71.95 248.3,71.95 248.3,77.1 249.05,77.1 			"/>
		</g>
		<g id="LWPOLYLINE_33_">
			<polyline points="241.27,71.94 241.27,71.94 241.54,71.96 241.76,72 241.96,72.08 242.12,72.19 242.2,72.28 242.32,72.45 
				242.39,72.66 242.41,72.9 242.4,73.12 242.34,73.33 242.24,73.53 242.09,73.69 242.09,73.7 241.91,73.83 241.72,73.92 
				241.5,73.97 241.26,73.99 240.37,73.99 240.37,74.65 240.91,74.65 241.08,74.66 241.29,74.72 241.48,74.82 241.58,74.9 
				241.72,75.05 241.86,75.24 242.01,75.48 242.98,77.1 243.86,77.1 242.78,75.35 242.71,75.25 242.57,75.03 242.44,74.85 
				242.33,74.71 242.29,74.68 242.11,74.53 241.91,74.42 241.91,74.41 241.98,74.38 242.22,74.3 242.42,74.2 242.6,74.09 
				242.76,73.96 242.9,73.81 243.01,73.65 243.09,73.47 243.15,73.27 243.19,73.06 243.2,72.84 243.19,72.65 243.16,72.42 
				243.09,72.21 243,72.02 242.87,71.84 242.72,71.69 242.68,71.66 242.51,71.54 242.32,71.45 242.12,71.38 241.89,71.32 
				241.65,71.29 241.39,71.28 240.37,71.28 240.37,71.94 241.27,71.94 			"/>
		</g>
		<g id="LWPOLYLINE_32_">
			<rect x="239.13" y="71.28" width="0.75" height="5.81"/>
		</g>
	</g>
</g>
</svg>
