<?xml version="1.0" encoding="utf-8"?>
<!-- Generator: Adobe Illustrator 25.0.0, SVG Export Plug-In . SVG Version: 6.00 Build 0)  -->
<svg version="1.1" id="图层_1" xmlns="http://www.w3.org/2000/svg" xmlns:xlink="http://www.w3.org/1999/xlink" x="0px" y="0px"
	 viewBox="0 0 123.19 123.2" style="enable-background:new 0 0 123.19 123.2;" xml:space="preserve">
<style type="text/css">
	.st0{fill:#B27E18;}
</style>
<g>
	<g>
		<g id="LWPOLYLINE_63_">
			<path class="st0" d="M86.66,6.7l0.51-1.12C56.24-8.55,19.7,5.08,5.58,36.02s-0.49,67.47,30.45,81.6s67.47,0.49,81.6-30.45
				c12.26-26.84,3.75-58.61-20.29-75.73l-0.71,1c23.55,16.78,31.89,47.91,19.88,74.22c-13.84,30.32-49.65,43.68-79.97,29.84
				C6.21,102.66-7.15,66.86,6.7,36.53S56.34-7.15,86.66,6.7z"/>
		</g>
		<g id="LWPOLYLINE_62_">
			<path class="st0" d="M41.87,6.91l0.42,1.16C12.73,18.74-2.59,51.35,8.07,80.91c8.8,24.38,32.96,39.74,58.77,37.35l0.11,1.23
				c-26.37,2.44-51.05-13.25-60.04-38.16C-3.98,51.13,11.67,17.81,41.87,6.91z"/>
		</g>
		<g id="LWPOLYLINE_61_">
			<path class="st0" d="M86.09,114.32l-0.52-1.12c28.5-13.24,40.87-47.08,27.63-75.58c-3.79-8.15-9.45-15.29-16.53-20.83l0.76-0.97
				c7.23,5.66,13.02,12.95,16.89,21.28C127.85,66.22,115.21,100.8,86.09,114.32z"/>
		</g>
		<g id="LWPOLYLINE_60_">
			<path class="st0" d="M63.16,6.93l-0.04,1.23C33.61,7.32,9.01,30.57,8.17,60.08c-0.15,5.43,0.52,10.86,2,16.09L8.98,76.5
				c-1.52-5.35-2.21-10.9-2.05-16.46C7.8,29.85,32.97,6.07,63.16,6.93z"/>
		</g>
		<g id="LWPOLYLINE_59_">
			<path class="st0" d="M10.15,80.14l1.16-0.42C17.9,98,33.87,111.26,53.05,114.37l-0.2,1.22C33.24,112.4,16.89,98.83,10.15,80.14z"
				/>
		</g>
		<g id="LWPOLYLINE_58_">
			<path class="st0" d="M109.03,88.82l-1.07-0.61c9.68-16.86,9.44-37.65-0.63-54.28l1.05-0.64
				C118.68,50.31,118.93,71.57,109.03,88.82z"/>
		</g>
		<g id="CIRCLE_1_">
			<path class="st0" d="M89.24,9.6c0-1.36,1.1-2.46,2.46-2.46s2.46,1.1,2.46,2.46s-1.1,2.46-2.46,2.46S89.24,10.96,89.24,9.6
				L89.24,9.6z"/>
		</g>
	</g>
	<g>
		<g id="LWPOLYLINE_57_">
			<rect x="57.08" y="30.92" width="9.04" height="0.61"/>
		</g>
		<g id="LWPOLYLINE_56_">
			<polygon points="69.22,42.11 69.17,40.63 69.15,39.05 69.15,37.37 69.15,23.55 69.96,22.96 68.23,21.63 67.74,22.35 67.74,43.54 
				69.25,42.72 			"/>
		</g>
		<g id="LWPOLYLINE_55_">
			<rect x="57.08" y="40.3" width="9.04" height="0.61"/>
		</g>
		<g id="LWPOLYLINE_54_">
			<rect x="57.08" y="22.65" width="9.04" height="0.59"/>
		</g>
		<g id="LWPOLYLINE_53_">
			<polygon points="54.25,23.57 54.28,25.23 54.28,26.83 54.3,28.39 54.3,29.9 54.3,31.37 54.33,32.78 54.33,32.8 54.3,34.26 
				54.3,35.74 54.3,37.27 54.28,38.82 54.28,40.43 54.25,42.06 54.23,43.74 55.73,42.83 55.73,22.65 54.23,21.63 54.23,21.89 			"/>
		</g>
		<g id="LWPOLYLINE_52_">
			<polygon points="70.39,94.16 70.37,92.61 70.34,91.03 70.34,89.85 70.34,88.27 70.34,86.74 71.26,86.03 69.66,84.62 68.94,85.32 
				68.94,95.92 70.45,95.21 			"/>
		</g>
		<g id="LWPOLYLINE_51_">
			<polygon points="52.8,91.77 52.77,93.42 52.75,94.95 52.7,96.33 54.2,95.62 54.2,85.57 52.7,84.83 52.75,86 52.77,87.53 
				52.8,89.11 52.8,90.77 			"/>
		</g>
		<g id="LWPOLYLINE_50_">
			<rect x="55.74" y="93.5" width="11.88" height="0.61"/>
		</g>
		<g id="LWPOLYLINE_49_">
			<rect x="55.74" y="89.47" width="11.88" height="0.59"/>
		</g>
		<g id="LWPOLYLINE_48_">
			<rect x="55.74" y="85.62" width="11.88" height="0.61"/>
		</g>
		<g id="LWPOLYLINE_47_">
			<rect x="57.95" y="81.69" width="7.52" height="0.61"/>
		</g>
		<g id="LWPOLYLINE_46_">
			<polygon points="68.18,81.13 68.15,79.63 68.13,77.71 68.13,75.44 69.15,74.73 67.44,73.33 66.72,74.18 66.72,83.5 68.23,82.79 
				68.2,82.23 			"/>
		</g>
		<g id="LWPOLYLINE_45_">
			<polygon points="55.17,82.28 55.12,83.81 56.62,83.09 56.62,74.31 55.12,73.51 55.14,74.09 55.2,75.65 55.22,77.2 55.22,78.76 
				55.22,79.14 55.2,80.72 			"/>
		</g>
		<g id="LWPOLYLINE_44_">
			<rect x="57.95" y="78.04" width="7.52" height="0.61"/>
		</g>
		<g id="LWPOLYLINE_43_">
			<rect x="57.95" y="74.42" width="7.52" height="0.61"/>
		</g>
		<g id="LWPOLYLINE_42_">
			<polyline points="37.96,59.35 37.97,59.35 38.23,59.36 38.46,59.41 38.65,59.49 38.82,59.6 38.9,59.68 39.02,59.86 39.08,60.07 
				39.11,60.31 39.09,60.53 39.03,60.74 38.93,60.93 38.79,61.1 38.78,61.11 38.61,61.24 38.42,61.33 38.2,61.38 37.95,61.4 
				37.07,61.4 37.07,62.06 37.61,62.06 37.77,62.07 37.99,62.12 38.18,62.23 38.28,62.31 38.41,62.46 38.56,62.65 38.71,62.89 
				39.67,64.5 40.56,64.5 39.47,62.76 39.41,62.66 39.26,62.43 39.13,62.25 39.02,62.12 38.99,62.08 38.81,61.94 38.61,61.83 
				38.61,61.81 38.68,61.79 38.91,61.71 39.12,61.61 39.3,61.49 39.46,61.36 39.59,61.22 39.7,61.05 39.79,60.88 39.85,60.68 
				39.89,60.47 39.9,60.24 39.89,60.06 39.85,59.83 39.79,59.61 39.69,59.42 39.57,59.25 39.42,59.1 39.37,59.06 39.21,58.95 
				39.02,58.86 38.81,58.78 38.59,58.73 38.35,58.7 38.09,58.69 37.07,58.69 37.07,59.35 37.97,59.35 			"/>
		</g>
		<g id="LWPOLYLINE_41_">
			<rect x="35.82" y="58.69" width="0.75" height="5.81"/>
		</g>
		<g id="LWPOLYLINE_40_">
			<rect x="44.42" y="58.69" width="0.75" height="5.81"/>
		</g>
		<g id="LWPOLYLINE_39_">
			<polygon points="51.68,64.59 51.92,64.6 51.99,64.6 52.25,64.59 52.49,64.57 52.73,64.53 52.95,64.48 53.16,64.42 53.35,64.35 
				53.53,64.26 53.53,63.54 53.36,63.64 53.17,63.73 52.96,63.8 52.74,63.86 52.51,63.9 52.28,63.92 52.03,63.93 51.93,63.93 
				51.69,63.91 51.47,63.87 51.26,63.8 51.06,63.71 50.87,63.6 50.7,63.47 50.54,63.32 50.41,63.16 50.29,62.99 50.19,62.8 
				50.11,62.6 50.05,62.39 50,62.16 49.98,61.92 49.97,61.66 49.97,61.55 49.99,61.3 50.02,61.07 50.07,60.84 50.14,60.63 
				50.22,60.43 50.32,60.25 50.44,60.07 50.58,59.91 50.72,59.78 50.89,59.64 51.07,59.53 51.27,59.44 51.47,59.36 51.69,59.31 
				51.92,59.28 52.16,59.27 52.22,59.27 52.46,59.28 52.69,59.31 52.91,59.36 53.12,59.43 53.33,59.51 53.53,59.61 53.53,58.83 
				53.51,58.82 53.32,58.75 53.12,58.69 52.9,58.65 52.67,58.62 52.42,58.6 52.16,58.59 52.03,58.59 51.79,58.61 51.56,58.64 
				51.34,58.69 51.13,58.75 50.92,58.83 50.73,58.92 50.54,59.03 50.36,59.15 50.18,59.29 50.02,59.45 49.87,59.61 49.74,59.78 
				49.62,59.96 49.52,60.14 49.43,60.34 49.35,60.54 49.29,60.76 49.24,60.98 49.21,61.21 49.19,61.46 49.18,61.71 49.18,61.74 
				49.19,61.99 49.21,62.24 49.25,62.47 49.3,62.69 49.37,62.9 49.45,63.1 49.55,63.29 49.66,63.47 49.79,63.64 49.93,63.81 
				50.06,63.94 50.23,64.08 50.4,64.2 50.59,64.31 50.78,64.4 50.99,64.47 51.21,64.53 51.44,64.57 			"/>
		</g>
		<g id="LWPOLYLINE_38_">
			<rect x="61.89" y="58.69" width="0.75" height="5.81"/>
		</g>
		<g id="LWPOLYLINE_37_">
			<polygon points="61.4,61.88 61.4,61.21 58.95,61.21 58.95,58.69 58.2,58.69 58.2,64.5 58.95,64.5 58.95,61.88 			"/>
		</g>
		<g id="LWPOLYLINE_36_">
			<polygon points="67.74,62.91 69.64,62.91 69.4,62.26 67.97,62.26 68.68,60.28 68.33,59.31 66.35,64.5 67.18,64.5 			"/>
		</g>
		<g id="LWPOLYLINE_35_">
			<polygon points="68.63,58.69 70.75,64.5 71.58,64.5 69.37,58.69 			"/>
		</g>
		<g id="LWPOLYLINE_34_">
			<polygon points="85.87,59.36 87.55,59.36 87.55,58.69 83.44,58.69 83.44,59.36 85.12,59.36 85.12,64.5 85.87,64.5 			"/>
		</g>
		<g id="LWPOLYLINE_33_">
			<polyline points="78.08,59.35 78.09,59.35 78.35,59.36 78.58,59.41 78.77,59.49 78.94,59.6 79.02,59.68 79.13,59.86 79.2,60.07 
				79.23,60.31 79.21,60.53 79.15,60.74 79.05,60.93 78.91,61.1 78.9,61.11 78.73,61.24 78.53,61.33 78.32,61.38 78.07,61.4 
				77.19,61.4 77.19,62.06 77.73,62.06 77.89,62.07 78.11,62.12 78.3,62.23 78.39,62.31 78.53,62.46 78.68,62.65 78.83,62.89 
				79.79,64.5 80.68,64.5 79.59,62.76 79.53,62.66 79.38,62.43 79.25,62.25 79.14,62.12 79.1,62.08 78.93,61.94 78.73,61.83 
				78.73,61.81 78.8,61.79 79.03,61.71 79.24,61.61 79.42,61.49 79.58,61.36 79.71,61.22 79.82,61.05 79.91,60.88 79.97,60.68 
				80.01,60.47 80.02,60.24 80.01,60.06 79.97,59.83 79.91,59.61 79.81,59.42 79.69,59.25 79.54,59.1 79.49,59.06 79.33,58.95 
				79.14,58.86 78.93,58.78 78.71,58.73 78.47,58.7 78.21,58.69 77.19,58.69 77.19,59.35 78.09,59.35 			"/>
		</g>
		<g id="LWPOLYLINE_32_">
			<rect x="75.94" y="58.69" width="0.75" height="5.81"/>
		</g>
	</g>
</g>
</svg>
