<svg id="图层_1" data-name="图层 1" xmlns="http://www.w3.org/2000/svg" viewBox="0 0 594.34 176.69"><defs><style>.cls-1{fill:#d7133e;}.cls-2{fill:#231815;}</style></defs><polygon class="cls-1" points="176.57 75.03 176.42 74.14 176.27 73.25 175.83 71.47 175.38 69.85 174.79 68.07 174.2 66.44 174.05 66 173.9 65.85 173.9 65.7 173.75 65.7 173.61 65.85 173.61 66 173.46 66.3 173.46 66.74 173.31 67.03 173.16 67.48 173.01 67.92 172.87 68.37 172.72 68.96 172.42 69.4 172.13 69.99 171.83 70.59 171.53 71.18 171.24 71.92 170.79 72.51 170.35 73.1 169.91 73.84 169.31 74.43 168.72 75.17 168.13 75.91 167.39 76.5 166.65 77.25 165.91 77.98 165.02 78.58 164.13 79.32 163.1 79.91 162.06 80.65 161.03 81.24 159.84 81.98 158.51 82.57 157.18 83.17 155.85 83.76 154.37 84.2 152.89 84.79 151.26 85.24 149.48 85.68 147.71 86.12 145.78 86.57 143.86 86.86 141.78 87.31 139.71 87.46 137.49 87.75 135.13 87.9 132.61 88.05 130.69 88.2 128.76 88.2 126.84 88.2 124.91 88.2 122.99 88.2 121.21 88.05 119.44 87.9 117.66 87.75 115.89 87.6 114.26 87.46 112.63 87.16 111 86.86 109.37 86.57 107.75 86.27 106.27 85.98 104.78 85.68 103.31 85.24 101.83 84.79 100.49 84.5 99.16 84.05 97.83 83.61 96.5 83.02 95.17 82.57 93.98 82.13 92.8 81.54 91.61 81.09 90.43 80.5 89.39 79.91 88.36 79.47 87.32 78.87 86.28 78.28 85.25 77.69 84.36 77.1 83.33 76.5 82.44 75.91 81.7 75.32 80.81 74.73 80.07 74.14 79.33 73.55 78.59 72.95 77.85 72.36 77.11 71.77 76.81 71.47 76.81 71.33 76.67 71.33 76.52 71.03 76.22 70.88 75.92 70.59 75.48 70.29 75.19 69.85 74.74 69.4 74.3 68.96 73.85 68.37 73.26 67.77 72.82 67.18 72.37 66.44 71.78 65.7 71.34 64.96 70.75 64.22 70.3 63.34 69.86 62.59 69.41 61.71 69.12 60.67 68.82 59.78 68.53 58.75 68.38 58.3 68.38 58.16 68.23 58.16 68.23 58.01 68.08 58.01 67.93 58.01 67.93 58.16 67.93 58.45 67.93 58.75 67.78 59.34 67.78 60.23 67.78 61.12 67.64 62.15 67.64 63.34 67.64 64.52 67.78 65.85 67.78 67.18 67.93 68.66 68.08 70.29 68.23 71.92 68.53 73.55 68.82 75.32 69.12 77.1 69.56 78.87 70 80.8 70.6 82.72 71.19 84.64 71.93 86.72 72.67 88.79 72.97 89.23 72.97 89.38 72.97 89.53 73.11 89.97 73.85 91.75 74.59 93.52 75.48 95.3 76.37 97.08 77.26 98.85 78.29 100.48 79.48 102.25 80.66 104.03 81.84 105.66 83.18 107.28 83.62 107.73 83.62 107.88 83.77 107.88 83.77 108.02 83.92 108.17 84.66 109.06 85.99 110.54 87.32 112.17 87.62 112.32 87.77 112.61 88.06 112.91 88.36 113.2 88.65 113.5 89.1 113.8 89.39 114.09 89.84 114.54 90.28 114.83 90.72 115.28 91.76 116.16 92.8 117.05 93.98 117.94 95.31 118.98 96.64 119.86 98.13 120.9 99.75 121.94 101.38 122.82 103.16 123.71 104.93 124.75 106.71 125.49 108.63 126.37 110.71 127.11 112.78 127.71 114.85 128.3 117.07 128.74 117.66 128.89 117.81 128.89 117.96 128.89 118.4 128.89 120.18 129.19 121.95 129.33 123.58 129.48 125.21 129.48 126.84 129.63 128.47 129.63 129.94 129.63 131.43 129.63 132.76 129.48 134.24 129.48 135.57 129.33 136.9 129.19 138.09 129.04 139.42 128.89 140.6 128.74 141.64 128.59 142.82 128.3 143.86 128.15 144.89 127.85 145.78 127.71 146.67 127.41 147.56 127.11 148.44 126.97 149.33 126.67 150.07 126.37 150.66 126.23 151.41 125.93 152 125.63 152.59 125.34 153.18 125.19 153.63 124.89 154.07 124.75 154.51 124.6 154.96 124.3 155.25 124.15 155.55 124.01 155.85 123.86 155.99 123.71 156.14 123.71 156.29 123.56 156.44 123.56 156.44 123.41 156.59 123.41 157.18 123.12 158.21 122.53 159.25 121.94 160.29 121.34 161.17 120.6 162.21 119.86 163.1 119.12 163.99 118.38 164.87 117.64 165.76 116.75 166.5 116.02 167.39 115.13 168.13 114.24 168.87 113.2 169.61 112.32 170.2 111.28 170.94 110.24 171.53 109.21 172.13 108.17 172.72 107.14 173.16 105.95 173.75 104.77 174.2 103.58 174.64 102.4 175.09 101.22 175.38 99.89 175.68 98.7 176.12 97.37 176.27 96.04 176.57 94.71 176.71 93.37 177.01 91.89 177.16 90.56 177.16 89.08 177.31 87.6 177.31 86.12 177.31 84.64 177.31 83.02 177.16 81.54 177.16 79.91 177.01 78.28 176.86 76.8 176.57 75.03 176.57 75.03"/><polygon class="cls-1" points="157.33 34.18 156.29 33.3 155.25 32.26 154.22 31.37 153.03 30.48 151.85 29.6 150.52 28.71 149.33 27.82 147.85 27.08 146.37 26.19 144.89 25.45 143.41 24.71 141.78 23.97 140.16 23.23 138.38 22.64 136.6 22.05 134.68 21.46 132.76 21.01 130.69 20.57 128.61 20.13 126.54 19.83 124.32 19.53 123.73 19.39 123.58 19.39 123.43 19.53 123.43 19.68 123.58 19.68 123.58 19.83 123.88 19.83 124.03 19.98 124.62 20.27 125.21 20.57 125.95 21.01 126.69 21.46 127.58 22.05 128.47 22.64 129.35 23.38 130.39 24.12 131.43 25.01 132.46 25.9 133.5 26.93 134.53 28.12 135.57 29.3 136.6 30.63 137.64 31.96 138.53 33.44 139.56 35.07 140.45 36.7 141.19 38.48 141.64 39.36 142.08 40.25 142.82 42.62 143.56 44.84 144.15 47.21 144.75 49.42 145.04 51.79 145.34 54.01 145.49 55.2 145.63 56.38 145.63 57.42 145.63 58.6 145.63 59.64 145.63 60.67 145.49 61.85 145.34 62.89 145.34 63.93 145.04 64.96 144.89 66 144.6 66.89 144.45 67.92 144.15 68.81 143.71 69.85 143.41 70.73 142.97 71.62 142.53 72.51 142.08 73.25 141.64 74.14 141.04 74.88 140.45 75.62 139.86 76.36 139.27 77.1 138.53 77.69 137.79 78.28 137.05 78.87 136.16 79.47 135.42 80.06 134.53 80.5 134.09 80.65 133.94 80.8 133.79 80.8 133.79 80.94 133.94 81.09 134.09 81.09 134.39 80.94 135.87 80.8 137.35 80.65 138.83 80.5 140.16 80.35 141.49 80.06 142.67 79.91 144.01 79.61 145.19 79.32 146.37 79.02 147.56 78.72 148.59 78.43 149.63 78.13 150.81 77.84 151.7 77.39 152.74 77.1 153.63 76.65 154.51 76.21 155.4 75.77 156.29 75.32 157.03 74.88 157.92 74.43 158.66 73.99 159.4 73.55 159.99 72.95 160.73 72.51 161.32 71.92 161.91 71.47 162.51 70.88 162.95 70.29 163.54 69.85 163.99 69.25 164.87 68.07 165.61 66.89 166.35 65.56 166.8 64.37 167.39 63.04 167.69 61.71 167.98 60.38 168.13 59.04 168.13 57.71 168.13 56.38 168.13 55.05 167.98 53.57 167.69 52.24 167.39 50.91 166.95 49.42 166.5 48.09 165.91 46.76 165.32 45.43 164.58 44.1 163.84 42.77 163.1 41.43 162.21 40.1 161.32 38.92 160.43 37.59 159.4 36.4 158.36 35.37 157.33 34.18 157.33 34.18"/><polygon class="cls-1" points="112.04 61.26 111.44 62.15 111 63.04 110.56 63.93 110.26 64.81 109.97 65.7 109.82 66.44 109.82 67.18 109.67 68.07 109.82 68.81 109.82 69.4 110.11 70.14 110.26 70.88 110.56 71.47 110.85 72.07 111.3 72.66 111.74 73.1 112.19 73.69 112.78 74.14 113.37 74.58 113.96 75.03 114.55 75.32 115.29 75.62 116.03 75.91 116.63 76.21 117.51 76.36 118.25 76.65 118.99 76.65 119.73 76.8 120.62 76.8 121.51 76.8 122.25 76.8 123.14 76.65 124.03 76.5 124.77 76.36 125.65 76.21 126.39 75.91 127.28 75.47 128.02 75.17 128.91 74.73 129.65 74.14 130.39 73.69 131.13 73.1 131.72 72.36 132.46 71.62 133.05 70.88 133.65 70.14 134.24 69.25 134.68 68.22 135.13 67.18 135.57 66.15 136.01 65.11 136.31 63.78 136.6 62.59 136.75 61.26 136.9 59.93 137.05 58.45 137.05 56.82 136.9 55.34 136.75 53.57 136.6 51.79 136.31 50.02 136.01 48.24 135.57 46.17 134.98 44.25 134.98 44.1 134.83 44.1 134.53 44.69 134.24 45.28 133.79 45.73 133.35 46.32 132.91 46.91 132.31 47.35 131.13 48.54 129.94 49.42 128.76 50.46 128.17 50.91 127.58 51.2 126.98 51.65 126.54 51.94 125.5 52.53 124.32 53.12 122.25 54.16 120.33 55.2 118.25 56.23 117.36 56.68 116.48 57.27 115.59 57.86 114.85 58.45 113.96 59.04 113.37 59.64 112.63 60.38 112.04 61.26 112.04 61.26"/><polygon class="cls-1" points="103.01 75.91 102.56 74.88 102.12 73.84 101.68 72.81 101.38 71.92 101.23 70.88 100.94 69.99 100.94 69.11 100.79 68.22 100.79 67.33 100.94 66.44 100.94 65.56 101.08 64.67 101.23 63.93 101.53 63.04 101.83 62.3 102.12 61.56 102.56 60.82 102.86 60.08 103.31 59.34 103.9 58.6 104.34 58.01 104.93 57.27 105.53 56.53 106.12 55.94 107.3 54.6 108.78 53.42 110.11 52.24 111.74 51.05 113.22 50.02 114.85 48.83 118.11 46.76 119.73 45.73 120.18 45.58 120.33 45.43 120.47 45.43 120.92 45.13 121.66 44.69 122.4 44.1 122.99 43.65 123.73 43.21 124.32 42.77 124.91 42.32 125.36 41.73 125.8 41.43 126.39 40.99 126.69 40.55 127.13 40.1 127.43 39.81 127.87 39.36 128.17 39.07 128.32 38.77 128.61 38.48 128.76 38.18 128.91 37.88 129.21 37.73 129.21 37.59 129.35 37.44 129.35 37.29 129.35 37.14 129.5 36.99 129.5 36.85 129.5 36.7 129.35 36.55 128.76 35.52 128.32 34.48 127.58 33.44 126.98 32.55 126.39 31.67 125.65 30.78 125.06 29.89 124.32 29.15 123.58 28.41 122.84 27.82 122.1 27.08 121.36 26.49 120.47 25.9 119.73 25.3 118.84 24.86 118.11 24.42 117.22 23.97 116.33 23.68 115.59 23.23 114.7 22.94 113.81 22.64 112.92 22.49 112.04 22.2 111.15 22.05 110.11 21.9 109.23 21.75 108.34 21.75 107.45 21.61 106.56 21.61 105.53 21.61 103.75 21.75 101.83 22.05 100.05 22.34 98.27 22.79 96.35 23.23 94.57 23.97 92.94 24.71 91.17 25.45 89.54 26.34 87.91 27.38 86.43 28.41 84.81 29.45 83.47 30.63 82.14 31.96 80.81 33.15 79.63 34.48 78.59 35.96 77.55 37.44 76.67 38.92 76.37 39.66 75.92 40.4 75.63 41.14 75.33 41.88 75.04 42.62 74.89 43.51 74.59 44.25 74.44 44.99 74.3 45.87 74.15 46.61 74.15 47.5 74.15 48.24 74.15 49.13 74.15 49.87 74.15 50.76 74.3 51.5 74.44 52.38 74.59 52.53 74.59 52.68 74.59 52.98 75.04 54.16 75.33 55.2 75.78 56.23 76.22 57.27 76.81 58.3 77.41 59.19 78 60.08 78.74 60.97 79.33 61.85 80.07 62.74 80.81 63.48 81.7 64.37 82.44 65.11 83.33 65.85 84.21 66.59 84.95 67.18 85.84 67.92 87.62 69.11 89.39 70.14 91.17 71.18 92.94 72.07 93.83 72.51 94.57 72.95 95.46 73.25 96.2 73.55 96.94 73.99 97.68 74.29 98.42 74.43 99.01 74.73 99.61 75.03 100.2 75.17 100.79 75.32 101.23 75.47 101.68 75.62 102.12 75.77 102.42 75.91 102.71 75.91 102.86 76.06 103.01 76.06 103.01 75.91 103.01 75.91"/><polygon class="cls-1" points="139.12 15.83 139.27 15.83 139.42 15.83 139.42 15.69 139.56 15.54 139.42 15.39 139.42 15.24 139.12 15.09 138.38 14.5 137.64 13.91 136.9 13.32 136.16 12.73 135.27 12.13 134.39 11.54 133.5 10.95 131.57 9.77 129.5 8.73 127.43 7.7 125.21 6.66 122.99 5.77 120.62 4.88 118.11 4 115.59 3.25 112.92 2.52 110.41 1.92 107.6 1.33 104.93 0.89 102.12 0.59 99.31 0.3 96.5 0 93.54 0 90.72 0 89.25 0 88.95 0 88.8 0 88.65 0 88.36 0 87.17 0 84.81 0.15 82.44 0.44 80.22 0.74 77.85 1.04 75.63 1.33 73.56 1.78 71.48 2.22 69.27 2.66 67.34 3.11 65.27 3.7 63.34 4.29 61.42 5.03 59.64 5.77 57.87 6.36 56.09 7.25 54.32 7.99 52.69 8.88 51.06 9.77 49.58 10.65 48.1 11.69 46.62 12.58 45.14 13.61 43.81 14.8 42.48 15.83 41.14 17.02 39.96 18.2 38.78 19.39 37.74 20.57 36.7 21.9 35.67 23.09 34.63 24.42 33.74 25.9 32.86 27.23 32.12 28.56 31.38 30.04 30.64 31.52 30.04 33 29.45 34.48 28.86 36.11 28.42 37.59 27.97 39.21 27.68 40.84 27.68 40.99 27.53 40.99 27.53 41.14 27.53 41.43 27.53 41.58 27.38 41.88 27.38 42.17 27.38 42.62 27.23 42.91 27.23 43.36 27.08 43.8 27.08 44.25 26.94 44.69 26.94 45.28 26.94 45.87 26.79 47.06 26.64 48.39 26.64 49.72 26.64 51.2 26.64 52.83 26.64 54.6 26.79 56.38 26.94 58.16 27.23 60.08 27.53 62.15 27.82 64.22 28.27 66.3 28.86 68.52 29.45 70.73 30.19 72.95 31.08 75.32 31.52 76.5 31.97 77.69 32.56 78.72 33 79.91 33.6 81.09 34.34 82.28 34.93 83.61 35.67 84.79 36.26 85.98 37 87.16 37.89 88.34 38.63 89.53 39.52 90.71 40.4 91.89 41.29 93.08 42.33 94.41 43.36 95.59 44.4 96.78 45.58 97.96 46.62 99.15 47.8 100.33 49.14 101.37 50.32 102.55 51.65 103.73 52.98 104.92 54.47 106.1 55.95 107.14 57.42 108.32 59.05 109.36 60.68 110.54 62.31 111.58 64.08 112.61 65.86 113.65 67.64 114.68 69.56 115.72 71.48 116.75 72.37 117.35 72.67 117.35 72.67 117.5 72.82 117.5 73.11 117.64 74 118.09 74.15 118.09 74.3 118.23 74.74 118.53 76.96 119.42 79.03 120.45 81.25 121.19 83.47 122.08 85.55 122.67 85.84 122.67 85.99 122.53 85.99 122.38 85.84 122.23 85.69 122.08 85.4 121.94 84.81 121.49 84.06 120.9 83.47 120.31 82.73 119.86 82.14 119.12 81.4 118.53 80.81 117.94 80.07 117.2 78.74 115.72 77.41 114.09 76.07 112.32 74.59 110.54 73.26 108.62 72.08 106.69 70.75 104.47 69.56 102.4 68.38 100.18 67.19 97.81 66.16 95.45 65.12 92.93 64.08 90.42 63.2 87.9 62.46 85.24 61.72 82.72 61.12 79.91 60.53 77.25 60.09 74.58 59.79 71.77 59.64 68.96 59.5 67.63 59.5 66.15 59.5 64.81 59.5 63.34 59.64 62 59.64 60.52 59.79 59.19 60.09 57.86 60.24 56.38 60.53 55.05 60.83 53.57 61.12 52.24 61.42 50.91 61.86 49.42 62.31 48.09 62.75 46.76 63.34 45.43 63.79 44.1 64.38 42.77 65.12 41.43 65.86 40.1 66.6 38.77 67.34 37.44 68.23 36.11 69.12 34.92 70 33.59 70.89 32.41 71.93 31.22 73.11 29.89 74.15 28.71 75.33 27.52 76.67 26.34 78 25.16 79.33 24.12 79.92 23.53 80.22 23.38 80.22 23.23 80.36 23.23 80.81 22.94 81.7 22.2 82.58 21.61 83.62 21.01 84.51 20.42 85.55 19.83 86.58 19.24 87.77 18.65 88.8 18.05 89.98 17.61 91.17 17.17 92.35 16.57 93.69 16.13 94.87 15.69 96.2 15.39 97.53 14.95 98.86 14.65 100.2 14.21 101.68 13.91 103.01 13.61 104.49 13.47 105.97 13.17 107.45 13.02 108.93 12.73 110.41 12.58 111.89 12.58 113.37 12.43 115 12.43 116.48 12.43 118.11 12.43 119.58 12.43 121.21 12.58 122.84 12.58 124.47 12.73 126.1 13.02 127.72 13.17 129.35 13.47 130.98 13.76 132.61 14.06 134.24 14.5 135.87 14.95 137.49 15.39 139.12 15.83 139.12 15.83"/><polygon class="cls-1" points="26.34 25.16 26.2 25.16 26.05 25.16 25.9 25.45 25.46 25.75 24.72 26.49 23.98 27.38 22.35 29 21.61 29.89 20.87 30.63 20.57 31.08 20.57 31.22 20.42 31.37 20.13 31.67 19.24 32.85 17.32 35.37 15.54 37.88 13.76 40.4 13.76 40.55 13.62 40.55 13.62 40.69 13.17 41.29 12.43 42.77 10.8 45.58 10.06 46.91 9.32 48.39 8.58 49.87 7.84 51.35 7.25 52.83 6.51 54.31 5.92 55.79 5.33 57.42 4.88 58.9 4.29 60.52 3.85 62 3.4 63.63 2.96 65.26 2.52 66.89 2.07 68.52 1.78 70.14 1.48 71.77 1.18 73.4 0.89 75.03 0.74 76.65 0.44 78.43 0.3 80.06 0.15 81.83 0.15 83.46 0 85.24 0 87.01 0 87.75 0 88.05 0 88.2 0 88.49 0 89.67 0 92.04 0.15 94.56 0.44 96.93 0.74 99.29 1.04 101.51 1.33 103.88 1.92 106.25 2.37 108.47 2.96 110.69 3.55 113.06 4.29 115.28 5.03 117.35 5.77 119.57 6.66 121.64 6.81 122.23 6.81 122.38 6.96 122.38 6.96 122.53 6.96 122.67 7.25 123.27 7.84 124.45 7.84 124.6 7.99 124.75 8.14 125.04 8.29 125.49 8.44 125.78 9.18 127.26 9.92 128.74 10.66 130.22 11.4 131.55 12.28 133.03 13.17 134.51 14.06 135.84 14.95 137.32 15.84 138.66 16.87 139.99 17.76 141.32 18.8 142.65 19.83 143.84 20.87 145.17 21.9 146.35 22.94 147.68 24.12 148.87 25.31 150.05 26.49 151.24 27.68 152.27 28.86 153.46 30.04 154.49 31.23 155.67 32.56 156.71 33.74 157.75 35.08 158.63 36.41 159.67 37.74 160.71 39.07 161.59 40.55 162.48 41.88 163.37 43.36 164.26 44.7 165.15 46.18 165.88 47.66 166.62 49.14 167.36 50.62 168.1 52.1 168.84 53.58 169.58 55.2 170.18 56.69 170.77 58.31 171.36 59.79 171.95 61.42 172.54 63.05 172.99 64.68 173.43 66.31 173.88 67.93 174.32 69.56 174.62 71.34 175.06 72.97 175.35 74.59 175.65 76.37 175.95 78 176.09 79.77 176.24 81.55 176.39 83.33 176.54 84.95 176.69 86.73 176.69 88.5 176.69 88.8 176.69 88.95 176.69 89.1 176.69 89.39 176.69 90.72 176.69 93.39 176.69 95.91 176.39 98.42 176.24 101.08 175.95 103.45 175.5 105.97 175.06 107.3 174.76 107.89 174.62 108.04 174.62 108.19 174.62 108.48 174.47 109.67 174.32 111.89 173.73 114.11 172.99 116.33 172.4 118.55 171.66 120.62 170.77 122.84 170.03 124.91 169.14 126.98 168.1 128.91 167.07 130.98 166.03 132.91 165 134.98 163.81 136.9 162.63 138.68 161.3 140.6 160.11 142.38 158.63 144.15 157.3 145.93 155.82 147.56 154.49 149.33 152.86 150.96 151.38 152.44 149.75 154.07 148.13 155.55 146.5 157.03 144.72 158.36 142.95 159.84 141.17 161.17 139.4 162.36 137.47 162.65 137.03 162.8 136.73 162.95 136.73 163.1 136.44 163.69 135.55 164.73 133.77 165.91 131.85 166.95 130.07 167.83 128.15 168.87 126.23 169.76 124.3 170.2 123.27 170.35 122.82 170.5 122.53 170.5 122.38 170.35 122.23 170.2 122.38 170.05 122.53 169.61 122.97 168.87 123.86 167.98 124.75 167.09 125.49 166.21 126.23 165.32 126.97 164.28 127.71 163.25 128.44 162.21 129.19 161.17 129.78 159.99 130.52 158.81 131.11 157.62 131.7 156.44 132.29 155.25 132.74 153.92 133.33 152.59 133.77 151.26 134.22 149.93 134.66 148.44 135.1 147.11 135.4 145.63 135.84 144.15 136.14 142.67 136.44 141.19 136.73 139.56 137.03 138.09 137.18 136.46 137.32 134.83 137.62 133.2 137.77 131.57 137.77 129.94 137.92 128.32 137.92 126.54 138.06 124.77 138.06 123.14 138.06 121.36 137.92 119.58 137.92 117.81 137.77 116.03 137.62 114.26 137.47 110.56 137.18 106.86 136.59 103.16 135.99 99.46 135.4 95.76 134.51 91.91 133.63 88.21 132.44 84.36 131.41 80.51 130.07 78.59 129.33 77.7 129.04 76.67 128.59 74.74 127.85 72.82 127.11 70.89 126.23 68.97 125.34 67.19 124.45 65.42 123.56 63.64 122.67 61.86 121.79 60.24 120.9 58.61 119.86 56.98 118.98 55.5 117.94 53.87 116.9 52.39 115.87 50.91 114.83 49.58 113.8 48.25 112.76 46.77 111.58 45.58 110.54 44.25 109.36 42.92 108.32 41.74 107.14 40.55 105.95 39.52 104.77 38.33 103.73 37.3 102.55 36.26 101.37 35.23 100.03 34.19 98.85 33.3 97.67 32.26 96.48 31.38 95.3 30.64 93.97 29.75 92.78 29.01 91.6 28.12 90.27 26.64 87.75 25.31 85.24 24.12 82.72 22.94 80.2 22.05 77.69 21.02 75.17 20.28 72.66 19.54 70.14 18.94 67.77 18.35 65.26 17.91 62.89 17.76 61.71 17.76 61.12 17.61 60.82 17.61 60.67 17.61 59.93 17.46 59.34 17.46 58.45 17.32 57.71 17.32 56.82 17.17 55.79 17.17 54.9 17.17 53.86 17.17 52.83 17.17 51.65 17.32 50.61 17.32 49.42 17.46 48.24 17.61 46.91 17.76 45.73 17.91 44.39 18.2 43.21 18.5 41.88 18.8 40.55 19.24 39.07 19.68 37.73 20.13 36.4 20.72 34.92 21.31 33.59 21.9 32.26 22.64 30.78 23.53 29.45 24.42 27.97 25.31 26.64 26.34 25.16 26.34 25.16"/><path class="cls-2" d="M238.49,271.07v29.6h-9.55V229.73h20a43.74,43.74,0,0,1,11.64,1.37,22.22,22.22,0,0,1,8.09,3.93,15.88,15.88,0,0,1,4.73,6.21,20.84,20.84,0,0,1,1.53,8.15,20.17,20.17,0,0,1-1.19,7,18.52,18.52,0,0,1-3.44,5.87,20.59,20.59,0,0,1-5.49,4.43,27,27,0,0,1-7.35,2.77,10.27,10.27,0,0,1,3.17,3l20.69,28.17h-8.52a4.21,4.21,0,0,1-3.86-2l-18.41-25.35a5.28,5.28,0,0,0-1.83-1.7,6.56,6.56,0,0,0-3-.52Zm0-7h10a24.37,24.37,0,0,0,7.4-1,14.83,14.83,0,0,0,5.34-2.87,11.91,11.91,0,0,0,3.25-4.43,14.54,14.54,0,0,0,1.09-5.69q0-6.33-4.19-9.55T249,237.31H238.49Z" transform="translate(-1.2 -208.98)"/><path class="cls-2" d="M355.31,265.23a41,41,0,0,1-2.52,14.62,33.57,33.57,0,0,1-7.13,11.46,31.8,31.8,0,0,1-11.07,7.45,39.72,39.72,0,0,1-28.53,0,31.86,31.86,0,0,1-11-7.45,33.42,33.42,0,0,1-7.13-11.46,43.7,43.7,0,0,1,0-29.25A33.74,33.74,0,0,1,295,239.11a32.1,32.1,0,0,1,11-7.49,39.3,39.3,0,0,1,28.53,0,32,32,0,0,1,11.07,7.49,33.9,33.9,0,0,1,7.13,11.49A41,41,0,0,1,355.31,265.23Zm-9.85,0a36.05,36.05,0,0,0-1.78-11.74,24.81,24.81,0,0,0-5.05-8.78,22,22,0,0,0-7.92-5.52,28.82,28.82,0,0,0-20.74,0,22.3,22.3,0,0,0-8,5.52,24.7,24.7,0,0,0-5.07,8.78,39.47,39.47,0,0,0,0,23.44,24.69,24.69,0,0,0,5.07,8.76,21.88,21.88,0,0,0,8,5.5,29.25,29.25,0,0,0,20.74,0,21.6,21.6,0,0,0,7.92-5.5,24.81,24.81,0,0,0,5.05-8.76A35.76,35.76,0,0,0,345.46,265.23Z" transform="translate(-1.2 -208.98)"/><path class="cls-2" d="M404.76,240.82a3.88,3.88,0,0,1-.94,1.12,2.14,2.14,0,0,1-1.29.37,3.41,3.41,0,0,1-1.95-.84,33.33,33.33,0,0,0-2.83-1.86,22.23,22.23,0,0,0-4.1-1.86,17.72,17.72,0,0,0-5.82-.84,17.09,17.09,0,0,0-5.69.87,12.22,12.22,0,0,0-4.14,2.35,9.8,9.8,0,0,0-2.5,3.49,11.1,11.1,0,0,0-.84,4.33,8.05,8.05,0,0,0,1.46,4.93,12.78,12.78,0,0,0,3.86,3.34,30.11,30.11,0,0,0,5.45,2.4c2,.67,4.11,1.38,6.24,2.1s4.2,1.54,6.23,2.45a22.2,22.2,0,0,1,5.45,3.44,15.72,15.72,0,0,1,3.86,5.1,17,17,0,0,1,1.46,7.43,24,24,0,0,1-1.58,8.73,20.31,20.31,0,0,1-4.63,7.11,21.73,21.73,0,0,1-7.48,4.75,27.57,27.57,0,0,1-10.07,1.73,30.71,30.71,0,0,1-12.55-2.5,29.53,29.53,0,0,1-9.68-6.76l2.78-4.55a3.66,3.66,0,0,1,1-.92,2.32,2.32,0,0,1,1.26-.37,3.9,3.9,0,0,1,2.38,1.12,39.15,39.15,0,0,0,3.34,2.45,26,26,0,0,0,4.85,2.45,19.24,19.24,0,0,0,7,1.11,18.28,18.28,0,0,0,6.09-.94,13,13,0,0,0,4.53-2.65,11.59,11.59,0,0,0,2.84-4.08,13.67,13.67,0,0,0,1-5.3,8.92,8.92,0,0,0-1.46-5.27,12,12,0,0,0-3.84-3.44,26.73,26.73,0,0,0-5.42-2.35l-6.23-2a64,64,0,0,1-6.24-2.35,20.16,20.16,0,0,1-5.42-3.47,16.07,16.07,0,0,1-3.84-5.32,19.42,19.42,0,0,1,4.24-21.41,20.36,20.36,0,0,1,6.85-4.35,25.08,25.08,0,0,1,9.38-1.64,30.08,30.08,0,0,1,10.84,1.88,25.08,25.08,0,0,1,8.57,5.45Z" transform="translate(-1.2 -208.98)"/><path class="cls-2" d="M464.6,229.73v7.83H430.55v23.56h27.57v7.52H430.55v24.21H464.6v7.82H420.9V229.73Z" transform="translate(-1.2 -208.98)"/><path class="cls-2" d="M489,271.07v29.6H479.4V229.73h20.05a43.61,43.61,0,0,1,11.63,1.37,22.19,22.19,0,0,1,8.1,3.93,15.88,15.88,0,0,1,4.73,6.21,20.84,20.84,0,0,1,1.53,8.15,20.41,20.41,0,0,1-1.19,7,18.52,18.52,0,0,1-3.44,5.87,20.59,20.59,0,0,1-5.49,4.43,27,27,0,0,1-7.35,2.77,10.24,10.24,0,0,1,3.16,3l20.7,28.17h-8.52a4.2,4.2,0,0,1-3.86-2L501,273.29a5.46,5.46,0,0,0-1.83-1.7,6.63,6.63,0,0,0-3-.52Zm0-7H499a24.37,24.37,0,0,0,7.4-1,14.83,14.83,0,0,0,5.34-2.87,11.91,11.91,0,0,0,3.25-4.43,14.53,14.53,0,0,0,1.08-5.69q0-6.33-4.18-9.55t-12.45-3.22H489Z" transform="translate(-1.2 -208.98)"/><path class="cls-2" d="M569.49,272.45v28.22h-9.55V272.45l-26-42.72h8.42a3,3,0,0,1,2,.65,6.54,6.54,0,0,1,1.29,1.58l16.23,27.57a36.14,36.14,0,0,1,1.66,3.27c.44,1,.85,2,1.21,3,.37-1,.76-2.05,1.19-3.07a27.9,27.9,0,0,1,1.63-3.22L583.8,232a6.42,6.42,0,0,1,1.21-1.51,2.81,2.81,0,0,1,2-.72h8.51Z" transform="translate(-1.2 -208.98)"/><path class="cls-2" d="M253.9,359.68a16.4,16.4,0,0,0-.2,5.94c-5.28.59-18.22,4.49-24.29,7.13a22.84,22.84,0,0,0-2-7.26,84.16,84.16,0,0,0,11.15-1.65V347a86.52,86.52,0,0,0-9,.53v-5.48c2.25.26,5.09.46,9,.53v-13c-4.09.06-7.13.26-9.57.52V324.5a118.16,118.16,0,0,0,12.67.53,118,118,0,0,0,12.67-.53v5.61c-2.64-.26-5.94-.46-10.56-.52v12.93a71.89,71.89,0,0,0,7.66-.46v5.48a53.71,53.71,0,0,0-7.66-.53v15.7C247.43,361.79,251.32,360.6,253.9,359.68Zm2.17-8.12a13.13,13.13,0,0,0-4.88-1.91c5.35-7.33,10.16-22.77,10.36-31.09a26.09,26.09,0,0,0,7.06,1.39c1.45.07,1.65.66.73,1.32-1.32.92-1.78,1.52-4.75,9.9h13.2a59.32,59.32,0,0,0,8.64-.46v5.94a51.68,51.68,0,0,0-6.33-.47c-.27,11.22-2.64,19.93-7.59,26.73,3.43,3.5,8.44,6.27,15.7,8.65a16.72,16.72,0,0,0-4.42,6.33A43.5,43.5,0,0,1,269.08,367c-4.89,4.89-11.42,8.78-19.93,11.95a13.58,13.58,0,0,0-4.43-5.08c10-2.71,16.83-6.21,21.39-11-3.11-5.15-4.69-11.15-5.09-18.08l4.49-1.06c.4,6,1.45,10.89,3.83,15,3.5-5.67,5-13.06,5.34-22.57H262.74A114.7,114.7,0,0,1,256.07,351.56Z" transform="translate(-1.2 -208.98)"/><path class="cls-2" d="M315.61,358.75a9.64,9.64,0,0,0-.07,5.48c-6.07.93-13.79,3.7-20.85,7.13a30.89,30.89,0,0,0-1.26-7.52,51.73,51.73,0,0,0,8.65-1.32V346.88a49.71,49.71,0,0,0-7.59.59v-5.35a61.9,61.9,0,0,0,7.59.53v-13.2a59.72,59.72,0,0,0-8.25.6v-5.42a72.87,72.87,0,0,0,10,.6,71.31,71.31,0,0,0,10-.6v5.42a57.23,57.23,0,0,0-7.07-.6v13.14a47.6,47.6,0,0,0,6.27-.47v5.35a47.8,47.8,0,0,0-6.27-.53v14.52A72.7,72.7,0,0,0,315.61,358.75Zm-1.85,18.61a18,18,0,0,0-4.75-4,33.75,33.75,0,0,0,19.07-23.89h-7.19v4.88H315.8a47.36,47.36,0,0,0,.6-7.19V331.76a34.8,34.8,0,0,0-.46-6.86,89.18,89.18,0,0,0,9,.59,43.26,43.26,0,0,0,1.85-7.85,17.37,17.37,0,0,0,6.34,1.25c.79-.06,1,.47.39,1-1,.8-1.52,1.46-4,5.68,9.37,0,15.18-.2,18.55-.66a36.41,36.41,0,0,0-.47,6.86v11a43.76,43.76,0,0,0,.47,7.13c-3-.26-7.59-.46-15.25-.46a39.92,39.92,0,0,1-1.32,4.82,14.76,14.76,0,0,0,4.69.26c1.05-.26,1.32,0,.72.92-.85,1.32-1.12,2.38-1.12,5.35V370c0,2.51.33,2.84,5.54,2.84,5.81,0,7-1,7.66-4.69a11.26,11.26,0,0,0,4.95,2.25c-1.06,5.15-3,6.86-12.74,6.86-9.1,0-9.9-.79-9.9-4.35V360.8a39,39,0,0,0-.33-5.08A41.59,41.59,0,0,1,313.76,377.36Zm15.71-47.91h-8.58v6.21h8.51C329.47,333.61,329.53,331.56,329.47,329.45Zm-.27,10h-8.31v6.21h7.78A60.21,60.21,0,0,0,329.2,339.48Zm4.29,6.21h9.57v-6.21h-9C334,341.66,333.75,343.77,333.49,345.69Zm.73-10h8.84v-6.21h-8.78C334.35,331.56,334.35,333.61,334.22,335.66Zm11.55,23,3.76-1a65.59,65.59,0,0,1,3,8l-4.09,1.45c-.14-.66-.27-1.39-.47-2.18L343.26,366a37.78,37.78,0,0,0-4.55,1.46,10.23,10.23,0,0,0-2.18-4.16,12,12,0,0,0,2.44-3.24c1.85-3.76,2.57-5.87,2.64-8.18a20.15,20.15,0,0,0,5.15,1.45c1.12.13,1.18.6.06,1.12a3.8,3.8,0,0,0-2,2.12,43.13,43.13,0,0,1-3.63,6.27L347,362A34.21,34.21,0,0,0,345.77,358.62Z" transform="translate(-1.2 -208.98)"/><path class="cls-2" d="M379.56,359.74a13.92,13.92,0,0,0-.73-5,52.83,52.83,0,0,0,6.14.86c1.12.06,1.26.33.4,1.18-.53.6-.73,5-.73,11.82l10-.27V361a14,14,0,0,0-.33-3.63,32,32,0,0,0,5.94.53c.79-.07.92.46.26.92a1.64,1.64,0,0,0-.79,1.72v9.7a16.06,16.06,0,0,0,.46,3.89h-5.54v-1.85l-17.89.93c-6.07.33-10,.59-12.73.79a10,10,0,0,0,.59-3.5v-8.25a13.34,13.34,0,0,0-.46-3.89,22.45,22.45,0,0,0,6.47.46c1.05-.13,1.12.4.13.92a3.17,3.17,0,0,0-.79,2.45v6.86l9.63-.26Zm2.64-41a41.89,41.89,0,0,0,7.79,1.12c1.25.06,1.19.59.06,1.05-.72.33-2.11,2.71-3.1,5.42h9.77a93,93,0,0,0,12.47-.6c-.46,2.57-1.19,9.17-1.52,14.26-.33,4.81-2,6.13-10.82,7.39a13.48,13.48,0,0,0-2.31-6.8c4.82,1.25,7.59.53,7.85-1.91l.86-7.86H374.88v18l28.83-.66c4.1,0,7.66-.2,11-.53-.53,3.76-.73,20.33-1.13,24-.72,6.27-2.77,6.53-9.5,7.78a13.22,13.22,0,0,0-2.84-6.59c5.22.19,6.73.13,6.8-3.63l.59-16.44-28.7.66a107,107,0,0,0-11,.53,44.08,44.08,0,0,0,.46-6.66V331.63a34.13,34.13,0,0,0-.46-5.87c2.24.26,7.65.53,12.27.53A31.44,31.44,0,0,0,382.2,318.7Zm2.38,25.87A36.73,36.73,0,0,0,382,334.8l5.88-1.39a78,78,0,0,0,3.1,9.7Z" transform="translate(-1.2 -208.98)"/></svg>