<?xml version="1.0" encoding="utf-8"?>
<!-- Generator: Adobe Illustrator 25.0.0, SVG Export Plug-In . SVG Version: 6.00 Build 0)  -->
<svg version="1.1" id="图层_1" xmlns="http://www.w3.org/2000/svg" xmlns:xlink="http://www.w3.org/1999/xlink" x="0px" y="0px"
	 viewBox="0 0 117.2 48" style="enable-background:new 0 0 117.2 48;" xml:space="preserve">
<style type="text/css">
	.st0{fill:#001B40;}
</style>
<path class="st0" d="M83.96,45.17c0-0.43,0.33-0.55,0.69-0.63c0.36-0.07,0.78-0.07,0.97-0.25v0.44c0,0.26-0.03,0.98-0.95,0.98
	C84.3,45.71,83.96,45.61,83.96,45.17 M82.79,45.22c0,0.88,0.64,1.28,1.45,1.28c0.52,0,1.07-0.14,1.44-0.53
	c0.01,0.14,0.04,0.28,0.08,0.41h1.19c-0.11-0.17-0.15-0.56-0.15-0.95v-2.22c0-1.02-1.02-1.21-1.88-1.21c-0.96,0-1.94,0.33-2.01,1.43
	h1.17c0.04-0.46,0.33-0.64,0.78-0.64c0.41,0,0.76,0.07,0.76,0.58c0,0.48-0.67,0.45-1.39,0.56C83.52,44.02,82.79,44.25,82.79,45.22
	 M80.89,43l-2.22,2.5v0.88h3.92V45.5h-2.38l2.22-2.5v-0.88h-3.6V43H80.89z M68.69,42.11h-1.12v4.27h1.17v-1.93
	c0-0.75,0.3-1.37,1.16-1.37c0.14,0,0.31,0.02,0.42,0.04v-1.09C70.26,42.01,70.16,42,70.07,42c-0.57,0-1.15,0.37-1.36,0.91h-0.02
	V42.11z M64.1,42.11h-1.17v2.63c0,1.06,0.31,1.76,1.56,1.76c0.5,0,1.01-0.23,1.3-0.71h0.02v0.6h1.12v-4.27h-1.17v2.24
	c0,0.87-0.27,1.22-0.91,1.22c-0.54,0-0.75-0.35-0.75-1.05V42.11z M58.3,44.31c0,1.28,0.87,2.19,2.16,2.19
	c1.12,0,1.91-0.62,2.06-1.75h-1.13c-0.07,0.52-0.39,0.87-0.93,0.87c-0.74,0-0.97-0.74-0.97-1.35c0-0.63,0.25-1.39,1-1.39
	c0.49,0,0.79,0.26,0.87,0.74h1.15c-0.07-1.09-1-1.62-2.01-1.62C59.09,42,58.3,42.98,58.3,44.31 M57.76,42.11h-1.17v4.27h1.17V42.11z
	 M57.76,40.48h-1.17v0.97h1.17V40.48z M53.27,44.99h-1.11c0.05,1.13,1.02,1.5,2.01,1.5c0.97,0,1.95-0.36,1.95-1.49
	c0-0.79-0.67-1.04-1.35-1.2c-0.67-0.16-1.33-0.21-1.33-0.64c0-0.35,0.39-0.4,0.65-0.4c0.42,0,0.77,0.12,0.8,0.58H56
	C55.91,42.31,55.05,42,54.11,42c-0.92,0-1.86,0.28-1.86,1.37c0,0.75,0.68,0.99,1.36,1.14c0.84,0.18,1.33,0.31,1.33,0.66
	c0,0.41-0.43,0.54-0.77,0.54C53.71,45.71,53.28,45.51,53.27,44.99 M46.55,44.25c0-0.69,0.24-1.37,1.03-1.37
	c0.8,0,1.04,0.69,1.04,1.37c0,0.68-0.24,1.36-1.04,1.36C46.79,45.61,46.55,44.93,46.55,44.25 M45.38,44.25
	c0,1.35,0.87,2.25,2.21,2.25c1.35,0,2.21-0.89,2.21-2.25c0-1.36-0.87-2.26-2.21-2.26C46.25,42,45.38,42.89,45.38,44.25 M34.77,45.17
	c0-0.43,0.33-0.55,0.69-0.63c0.36-0.07,0.78-0.07,0.97-0.25v0.44c0,0.26-0.03,0.98-0.95,0.98C35.11,45.71,34.77,45.61,34.77,45.17
	 M33.6,45.22c0,0.88,0.64,1.28,1.45,1.28c0.52,0,1.07-0.14,1.44-0.53c0.01,0.14,0.04,0.28,0.08,0.41h1.19
	c-0.11-0.17-0.15-0.56-0.15-0.95v-2.22c0-1.02-1.02-1.21-1.88-1.21c-0.96,0-1.94,0.33-2.01,1.43h1.17c0.04-0.46,0.33-0.64,0.78-0.64
	c0.41,0,0.76,0.07,0.76,0.58c0,0.48-0.67,0.45-1.39,0.56C34.33,44.02,33.6,44.25,33.6,45.22 M30.25,42.11h-1.12v4.27h1.17v-2.24
	c0-0.87,0.27-1.22,0.91-1.22c0.54,0,0.75,0.35,0.75,1.05v2.41h1.17v-2.63c0-1.06-0.31-1.76-1.56-1.76c-0.5,0-1.01,0.23-1.3,0.71
	h-0.02V42.11z M27.32,44.19c0,0.61-0.33,1.18-1,1.18c-0.72,0-0.95-0.67-0.95-1.28c0-0.64,0.29-1.21,0.95-1.21
	C27.08,42.88,27.32,43.5,27.32,44.19 M27.32,45.6v0.56c0.01,0.61-0.29,1.06-0.94,1.06c-0.41,0-0.77-0.15-0.88-0.59h-1.17
	C24.4,47.61,25.38,48,26.22,48c1.97,0,2.21-1.19,2.21-1.89v-4h-1.12v0.57H27.3c-0.28-0.5-0.71-0.69-1.27-0.69
	c-1.2,0-1.83,1.01-1.83,2.12c0,1.17,0.54,2.15,1.83,2.15c0.51,0,1.02-0.21,1.28-0.66H27.32z M20.8,43.79
	c0.02-0.33,0.23-0.91,0.97-0.91c0.57,0,0.83,0.31,0.93,0.91H20.8z M19.63,44.25c0,1.32,0.83,2.25,2.18,2.25c0.97,0,1.67-0.43,2-1.44
	h-1.03c-0.07,0.26-0.45,0.55-0.93,0.55c-0.65,0-1.02-0.34-1.05-1.08h3.08c0.08-1.31-0.62-2.54-2.07-2.54
	C20.51,42,19.63,42.97,19.63,44.25 M16.56,44.99h-1.12c0.05,1.13,1.02,1.5,2.01,1.5c0.97,0,1.95-0.36,1.95-1.49
	c0-0.79-0.67-1.04-1.36-1.2c-0.67-0.16-1.33-0.21-1.33-0.64c0-0.35,0.39-0.4,0.65-0.4c0.42,0,0.77,0.12,0.8,0.58h1.12
	C19.19,42.31,18.33,42,17.4,42c-0.92,0-1.86,0.28-1.86,1.37c0,0.75,0.68,0.99,1.36,1.14c0.84,0.18,1.33,0.31,1.33,0.66
	c0,0.41-0.43,0.54-0.77,0.54C16.99,45.71,16.56,45.51,16.56,44.99 M14.97,42.11H13.8v4.27h1.17V42.11z M14.97,40.48H13.8v0.97h1.17
	V40.48z M9.95,44.24c0-0.7,0.26-1.36,1.03-1.36c0.76,0,1.01,0.66,1.01,1.36c0,0.7-0.23,1.38-1.01,1.38
	C10.26,45.61,9.95,44.91,9.95,44.24 M8.78,44.21c0,1.18,0.63,2.29,1.92,2.29c0.54,0,1.02-0.2,1.3-0.66h0.02v0.55h1.12v-5.9h-1.17
	v2.15h-0.02C11.67,42.21,11.18,42,10.67,42C9.42,42,8.78,43.06,8.78,44.21 M20.37,33.83L31.09,0.7h-9l-6.5,24.64H15.5L9,0.7H0
	l10.44,33.13H20.37z M30.43,33.83h8.63V0.7h-4.74l-3.89,11.83V33.83z M40.74,42c-0.55,0-1,0.26-1.3,0.69h-0.02v-0.58h-1.11v4.27
	h1.17V43.9c0-0.83,0.56-0.98,0.79-0.98c0.74,0,0.71,0.57,0.71,1.07v2.4h1.17V44c0-0.54,0.12-1.08,0.78-1.08
	c0.67,0,0.72,0.47,0.72,1.04v2.42h1.17v-2.86c0-1.11-0.65-1.53-1.56-1.53c-0.59,0-1.04,0.34-1.29,0.71
	C41.75,42.19,41.27,42,40.74,42 M67.74,33.83h5.57V15.68H59.39v6.4h6.03c-0.46,3.02-3.34,5.01-7.61,5.01c-5.57,0-7.7-4.92-7.7-9.84
	s2.13-9.84,7.7-9.84c3.48,0,6.26,1.72,6.54,4.55h8.63C72.19,3.67,64.86,0,57.99,0C47.97,0,41.48,7.66,41.48,17.26
	s6.5,17.26,16.52,17.26c3.06,0,6.96-1.11,9.23-4.32L67.74,33.83z M71.36,43.79c0.02-0.33,0.23-0.91,0.97-0.91
	c0.57,0,0.83,0.31,0.93,0.91H71.36z M71.36,44.53h3.08c0.08-1.31-0.62-2.54-2.07-2.54c-1.3,0-2.18,0.97-2.18,2.26
	c0,1.32,0.84,2.25,2.18,2.25c0.97,0,1.67-0.43,2-1.44h-1.03c-0.07,0.26-0.45,0.55-0.93,0.55C71.76,45.61,71.4,45.28,71.36,44.53
	 M74.79,43h2.06l-2.22,2.5v0.88h3.92V45.5h-2.38l2.22-2.5v-0.88h-3.6V43z M96.41,33.83h8.63V0.7h-8.63v12.06H85.05V0.7h-8.63v33.13
	h8.63V20.18h11.37V33.83z M117.2,0.7h-8.63v33.13h8.63V0.7z"/>
</svg>
