<svg width="160" height="43" viewBox="0 0 160 43" fill="none" xmlns="http://www.w3.org/2000/svg">
<g clip-path="url(#clip0_1_105)">
<mask id="mask0_1_105" style="mask-type:luminance" maskUnits="userSpaceOnUse" x="-42" y="-37" width="206" height="116">
<path d="M-41.5425 -36.2825H163.349V78.8664H-41.5425V-36.2825Z" fill="white"/>
</mask>
<g mask="url(#mask0_1_105)">
<mask id="mask1_1_105" style="mask-type:luminance" maskUnits="userSpaceOnUse" x="0" y="0" width="43" height="43">
<path d="M21.3596 42.1911C32.9017 42.1911 42.2585 32.8344 42.2585 21.2922C42.2585 9.75007 32.9017 0.393311 21.3596 0.393311C9.81742 0.393311 0.460655 9.75007 0.460655 21.2922C0.460655 32.8344 9.81742 42.1911 21.3596 42.1911Z" fill="white"/>
</mask>
<g mask="url(#mask1_1_105)">
<path d="M-0.566383 -0.631104H43.2803V43.2156H-0.566383V-0.631104Z" fill="#E5E5E4"/>
</g>
<mask id="mask2_1_105" style="mask-type:luminance" maskUnits="userSpaceOnUse" x="0" y="0" width="42" height="42">
<path d="M21.3606 41.781C32.6764 41.781 41.8497 32.6077 41.8497 21.2919C41.8497 9.97603 32.6764 0.802734 21.3606 0.802734C10.0448 0.802734 0.871468 9.97603 0.871468 21.2919C0.871468 32.6077 10.0448 41.781 21.3606 41.781Z" fill="white"/>
</mask>
<g mask="url(#mask2_1_105)">
<path d="M-0.155563 -0.22168H42.8716V42.8055H-0.155563V-0.22168Z" fill="white"/>
</g>
<mask id="mask3_1_105" style="mask-type:luminance" maskUnits="userSpaceOnUse" x="2" y="2" width="39" height="39">
<path d="M21.3596 40.1421C31.7701 40.1421 40.2096 31.7027 40.2096 21.2921C40.2096 10.8816 31.7701 2.44214 21.3596 2.44214C10.949 2.44214 2.50957 10.8816 2.50957 21.2921C2.50957 31.7027 10.949 40.1421 21.3596 40.1421Z" fill="white"/>
</mask>
<g mask="url(#mask3_1_105)">
<path d="M1.48254 1.41772H41.2314V41.1666H1.48254V1.41772Z" fill="#4A8CFF"/>
</g>
<mask id="mask4_1_105" style="mask-type:luminance" maskUnits="userSpaceOnUse" x="9" y="14" width="25" height="14">
<path d="M27.0971 18.8457L32.4243 14.9527C32.8894 14.5737 33.2439 14.6618 33.2439 15.3625V27.2339C33.2439 28.0207 32.8013 27.9305 32.4243 27.6437L27.0971 23.7508V18.8457ZM9.0667 15.3912V24.2425C9.07158 25.2034 9.45785 26.1231 10.1406 26.7993C10.8233 27.4755 11.7467 27.8529 12.7076 27.8486H25.6158C25.7904 27.8491 25.9581 27.7804 26.0822 27.6575C26.2062 27.5346 26.2765 27.3676 26.2776 27.1929V18.3416C26.2727 17.3807 25.8864 16.461 25.2037 15.7848C24.5209 15.1086 23.5976 14.7312 22.6366 14.7355H9.72849C9.55387 14.735 9.38615 14.8037 9.2621 14.9266C9.13805 15.0495 9.06778 15.2166 9.0667 15.3912Z" fill="white"/>
</mask>
<g mask="url(#mask4_1_105)">
<path d="M8.03966 13.7112H34.2657V28.8731H8.03966V13.7112Z" fill="white"/>
</g>
</g>
</g>
<path fill-rule="evenodd" clip-rule="evenodd" d="M139.776 16.5017C140.184 17.2049 140.317 18.0039 140.361 18.9027L140.419 20.0991V28.4757L140.477 29.6762C140.594 31.6341 142.038 33.0822 144.012 33.205L145.206 33.2632V20.1012L145.265 18.9048C145.315 18.0185 145.446 17.2028 145.86 16.4933C147.187 14.2088 150.115 13.4327 152.401 14.756C153.125 15.1763 153.727 15.7797 154.147 16.5079C154.553 17.2112 154.682 18.0247 154.732 18.9048L154.79 20.0991V28.4778L154.848 29.6783C154.971 31.6445 156.404 33.0926 158.385 33.2071L159.575 33.2653V18.9069C159.575 13.6179 155.291 9.33182 150.002 9.33182C147.254 9.32974 144.634 10.5115 142.82 12.5734C141.004 10.5095 138.386 9.32766 135.638 9.32766C133.651 9.32766 131.805 9.93104 130.276 10.9734C129.342 9.93104 127.259 9.32766 126.058 9.32766V33.2653L127.255 33.2071C129.256 33.076 130.707 31.6653 130.784 29.6783L130.848 28.4778V20.1012L130.906 18.9048C130.956 17.9997 131.081 17.207 131.491 16.4996C132.348 15.0223 133.927 14.1152 135.636 14.1152C137.34 14.1131 138.921 15.0244 139.776 16.5017ZM57.8283 33.205L59.0247 33.2632H76.9763L76.9181 32.0689C76.7537 30.1028 75.3618 28.663 73.3893 28.534L72.193 28.4757H61.4215L75.78 14.111L75.7217 12.9167C75.6281 10.9297 74.1779 9.49411 72.193 9.38176L70.9966 9.32558L53.0449 9.31934L53.1032 10.5157C53.2613 12.4652 54.6741 13.9342 56.6319 14.0444L57.8325 14.1048H68.6018L54.2413 28.4736L54.2995 29.67C54.4161 31.6487 55.8413 33.0781 57.8283 33.205ZM121.354 12.8294C126.027 17.5025 126.029 25.0822 121.354 29.7532C116.675 34.4263 109.099 34.4263 104.42 29.7532C99.7467 25.0801 99.7467 17.4983 104.42 12.8252C106.665 10.5802 109.705 9.31934 112.878 9.31934C116.061 9.32142 119.109 10.5823 121.354 12.8294ZM117.969 16.2187C120.772 19.0234 120.772 23.5696 117.969 26.3763C115.164 29.1789 110.616 29.1789 107.811 26.3763C105.009 23.5717 105.009 19.0234 107.811 16.2187C110.616 13.4161 115.164 13.4161 117.969 16.2187ZM87.7623 9.32558C90.9353 9.32558 93.9792 10.5885 96.2201 12.8314C100.895 17.5045 100.895 25.0864 96.2201 29.7553C91.5407 34.4284 83.9652 34.4284 79.2858 29.7553C74.6127 25.0822 74.6127 17.5004 79.2858 12.8273C81.5308 10.5823 84.5706 9.32142 87.7436 9.32142H87.7602V9.32558H87.7623ZM92.8307 16.2145C95.6354 19.0192 95.6354 23.5675 92.8307 26.3743C90.026 29.1769 85.4778 29.1769 82.6731 26.3743C79.8705 23.5696 79.8705 19.0213 82.6731 16.2166C85.4819 13.414 90.026 13.414 92.8307 16.2145Z" fill="#2D8CFF"/>
<defs>
<clipPath id="clip0_1_105">
<rect width="41.7978" height="41.7978" fill="white" transform="translate(0.460655 0.393311)"/>
</clipPath>
</defs>
</svg>
